<svg xmlns="http://www.w3.org/2000/svg" viewBox="0 0 468.08 320"><defs><style>.cls-1{fill:#93a9b2;}.cls-2{fill:#976882;}.cls-3{fill:#634155;}.cls-4{fill:#28c3e9;}.cls-5{fill:#926d46;}.cls-6{fill:#4a3521;}.cls-7{fill:#1e170f;}.cls-8{fill:#17130f;}.cls-11,.cls-20,.cls-23,.cls-35,.cls-9{fill:none;}.cls-9{stroke:#ed2390;}.cls-20,.cls-23,.cls-35,.cls-9{stroke-miterlimit:10;}.cls-10{fill:#3c9444;}.cls-12{fill:#eadb23;}.cls-13{fill:#b9ab32;}.cls-14{fill:#958932;}.cls-15{fill:#c82027;}.cls-16{fill:#ddd;}.cls-17{fill:#a3a3a3;}.cls-18{fill:#e8ce5d;}.cls-19{fill:#af9939;}.cls-20{stroke:#af9939;}.cls-21{fill:#bcbcbc;}.cls-22{fill:#d6d6d6;}.cls-23{stroke:#787878;}.cls-24{fill:#c6a860;}.cls-25{fill:#c9b177;}.cls-26{fill:#e8d295;}.cls-27{fill:#5f5c59;}.cls-28{fill:#4f4a3e;}.cls-29{fill:#bdb297;}.cls-30{fill:#4c4c4b;}.cls-31{fill:#2d2c2a;}.cls-32{fill:#141213;}.cls-33{fill:#b0b0b0;}.cls-34{fill:#1a1813;}.cls-35{stroke:#141213;}.cls-36{fill:#c6c6c5;}.cls-37{fill:#ababab;}.cls-38{fill:#f0efef;}.cls-39{fill:#dcdbdb;}.cls-40{fill:#cccccb;}.cls-41{fill:#fff;}</style></defs><title>Asset 1</title><g id="Layer_2" data-name="Layer 2"><g id="Layer_3" data-name="Layer 3"><rect class="cls-1" width="468.08" height="320"/></g><g id="Layer_1-2" data-name="Layer 1"><path class="cls-2" d="M195.28,106.47a24.81,24.81,0,0,1-.67,4.13c-.41,1.66-.86,3.42-1.37,5.21-2,7.13-4.86,14.89-9.72,19.95a17,17,0,0,1-15.37,5.3,35,35,0,0,1-12.29-3.88,26.42,26.42,0,0,1-13.32-18.28,38.62,38.62,0,0,1-.85-8.3c0-.53,0-1.07.06-1.61.87-12.27,11.47-25.66,24.79-25.88.53,0,1.07,0,1.61,0l1.3.1C185.89,84.69,196.22,93.72,195.28,106.47Z"/><path class="cls-3" d="M142.54,118.9a5.41,5.41,0,0,1-2.93.86c-3,0-5.14-.74-4.41-5.41.26-1.66,2.07-4.62,4.41-5.41a3,3,0,0,1,2.14,0c0,.54-.06,1.08-.06,1.61A38.62,38.62,0,0,0,142.54,118.9Z"/><path class="cls-3" d="M201.18,111.7c0,3-1.42,5.41-4.41,5.41a5.42,5.42,0,0,1-3.53-1.3c.51-1.79,1-3.55,1.37-5.21a24.81,24.81,0,0,0,.67-4.13,6.08,6.08,0,0,1,1.49-.18C199.76,106.29,201.18,109.61,201.18,111.7Z"/><path class="cls-4" d="M196.27,167.27a58.68,58.68,0,0,1-1.57,13.66,17.09,17.09,0,0,1-3,6.42,32.69,32.69,0,0,1-2.68,2.93,17.07,17.07,0,0,1-11,5.07,32,32,0,0,1-5.75-.15h-.06c-4-.49-8.07-1.88-10.95-4.91l-.14-.15a11.28,11.28,0,0,1-.87-1A54.37,54.37,0,0,1,150,159a59.14,59.14,0,0,1,.13-6.63c.05-.65.11-1.28.19-1.89,1.21-9.71,5.57-13.32,5.57-13.32a35,35,0,0,0,12.29,3.88,17,17,0,0,0,15.37-5.3,58.33,58.33,0,0,1,8.23,12.66,48.09,48.09,0,0,1,3.45,9.52h0A36.55,36.55,0,0,1,196.27,167.27Z"/><path class="cls-5" d="M392.84,265.38s-6.59.58-22.77-1.65c-7.64-1.05-21.72-1-41.14.15-19.24,1.17-31.45,2.05-43.88,2.05-10.84,0-62.81.65-62.81.65-9.43-.45-58.41-2.1-87,.45A470.14,470.14,0,0,1,80,268.38l-.6-4.5s13.78-18,20.07-23.51,32.8-39.09,32.8-39.09,2,1.2,8.24,1.34l20.3.47,11.49.26h0l9.59.22c1.22-.06,6.74,0,14.38,0l11.13.06c20.6.1,47.14.18,54.08-.48,11.36-1.08,37.55,0,37.55,0s39.74.08,40.64.53,8.83,9.89,12.58,17.53,17.67,23.21,22.77,27.56S392.84,265.38,392.84,265.38Z"/><path class="cls-6" d="M392.84,265.38v13.33s-.9-3-6.14-3-23.52.29-26.06.44-36.55,3.9-42.39,3.9-52.72,4.49-60.66,4.19-39.39,1.08-48.08,0-43.74-2.24-51.52-2c-4.19.15-27.86-.45-34.75-.45s-23.36,1-30.4-.3-10.94-1.95-10.94-1.95L80,268.38A470.14,470.14,0,0,0,135.22,267c28.61-2.55,77.59-.9,87-.45,0,0,52-.65,62.81-.65,12.43,0,24.64-.88,43.88-2.05,19.42-1.17,33.5-1.2,41.14-.15C386.25,266,392.84,265.38,392.84,265.38Z"/><path class="cls-7" d="M172.3,203.35h0l-11.49-.26c0-2.2.26-10.12.34-13l.14.15c2.88,3,6.94,4.42,10.95,4.91Z"/><path class="cls-8" d="M207.4,203.62l-11.13-.06c-.88-3.4-7.23-13.28-7.23-13.28a32.69,32.69,0,0,0,2.68-2.93,17.09,17.09,0,0,0,3-6.42c.75,1.07,2.94,4.14,3.71,5.38C200.16,189.13,207,201.25,207.4,203.62Z"/><path class="cls-9" d="M194.7,180.93l-.27-.37"/><path class="cls-7" d="M165,60.15a10.16,10.16,0,0,1-3.68,1.3,4.91,4.91,0,0,1-2.4-.12,1,1,0,0,1-.62-.58c-.16-.51.27-1.15,1.09-1.74a8.75,8.75,0,0,1,2.49-1.2,9.23,9.23,0,0,1,2.1-.43,7.16,7.16,0,0,1,1,0c.79.08,1.34.34,1.48.78S166.06,59.49,165,60.15Z"/><path class="cls-10" d="M166.28,74.73a5.7,5.7,0,0,1-3.37-.39l-1.6-12.89a9.17,9.17,0,0,0,1.6-.37C165,64.88,165.89,70.24,166.28,74.73Z"/><path class="cls-10" d="M170.83,71.16a6.44,6.44,0,0,1-2.13,2.65c-.52-4.14-1.38-8.77-2.82-12Z"/><path class="cls-7" d="M169.45,83.24l-1.3-.1c-.54,0-1.08,0-1.61,0a70.23,70.23,0,0,0-.26-8.38c-.39-4.49-1.31-9.85-3.37-13.65a9.11,9.11,0,0,0,2.08-.93l.89,1.68c1.44,3.21,2.3,7.84,2.82,12C169.34,78.9,169.45,83.24,169.45,83.24Z"/><path class="cls-11" d="M165.88,61.83a12,12,0,0,0-.89-1.68"/><path class="cls-9" d="M166.54,83.24v-.13"/><path class="cls-10" d="M168.52,38,164,57.38a9.23,9.23,0,0,0-2.1.43,8.75,8.75,0,0,0-2.49,1.2L147.5,44.56C153.22,34.82,168.52,38,168.52,38Z"/><line class="cls-11" x1="163.97" y1="57.39" x2="163.97" y2="57.38"/><path class="cls-10" d="M183.52,50.86l-17,7.29c-.14-.44-.69-.7-1.48-.78l17.86-12.1A6.15,6.15,0,0,1,183.52,50.86Z"/><line class="cls-11" x1="165" y1="57.37" x2="164.99" y2="57.38"/><path class="cls-10" d="M158.91,61.33l-12.85,13c-2.29-.58-2.43-4.44-2.43-4.44l14.66-9.15A1,1,0,0,0,158.91,61.33Z"/><line class="cls-11" x1="158.92" y1="61.32" x2="158.91" y2="61.33"/><path class="cls-7" d="M150.1,152.39A59.14,59.14,0,0,0,150,159c-1.64,0-11.28-.43-19.77-.85a90.32,90.32,0,0,1-26.64-5.53c-7.93-3.11-7.22-6.23-5.38-14.73s-2.69-6.81-10.91-8.08S82,119.34,84.15,116.37s6.8-7.09,2.55-10.08-6.38-4.94-8.5-9.9,5.38-29.47,5.67-31.46,6.8,0,6.8,0S89.11,74.85,88,85.62s3.54,9.07,10.2,9.07-1.42,12-3.26,17-6.38,7.5,5.52,8.06,10.92,2.56,11.48,5.11-1,15.73,3,21.68,20.69,3,23.9,3,11.49,1,11.49,1C150.21,151.11,150.15,151.74,150.1,152.39Z"/><line class="cls-9" x1="149.98" y1="159.02" x2="149.97" y2="159.02"/><path class="cls-2" d="M90.67,64.93s5.18,1.13,5.67-1.88S95,53.11,92,57c0,0,.53-4.1-1.33-4.16s-2.76,1.39-2.52,4.28c0,0-.66-3.25-2.35-3.13s-2.53,2-1.86,4.27c0,0-1.69-3.91-3.8-2.95s-3.14,2.95-2.32,5.6.7,3.88,2.32,4.26a9,9,0,0,0,3.73-.21"/><path class="cls-7" d="M258.79,62.18c.42,2.09,1.25,6.49-2.65,9.52s-10.3,5.94-11.28,7.2-2.5,2.64,2.37,5.57,4.74,11.69.42,14.2-14.76,7.24-15.88,10.1,4.46,11.21.7,16.92-15.18,15.87-19.91,18.24-14.92,9.92-17.36,14a48.09,48.09,0,0,0-3.45-9.52,23.38,23.38,0,0,1,8.13-7.16c5.15-2.62,18.38-10.28,21.87-17.38s1.11-10.31,0-14.07-3.21-7.1,2.92-11,12.81-8.63,8.91-11.42-8.91-4.32-2.78-9.33S249.6,68.58,251.27,67s.84-4,.84-5.53.2-3.3.2-3.3,5.92-4.6,9.13-2.23C261.44,55.92,258.37,60.1,258.79,62.18Z"/><path class="cls-12" d="M233.61,191.74c0,3.92-11.74,7.1-26.21,7.1-13.89,0-25.25-.17-26.15-3.64,0-.06,0-.12,0-.18a2.46,2.46,0,0,1,0-.28c0-3.93,11.73-9.11,26.21-9.11S233.61,187.81,233.61,191.74Z"/><path class="cls-13" d="M233.61,191.74c-.38,9.24-3.36,15.3-10.51,18.43-3.91,1.72-9.06,2.55-15.7,2.55a33.22,33.22,0,0,1-10.4-1.63c-8.06-2.66-14.17-8.39-15.75-15.89.9,3.47,12.26,3.64,26.15,3.64C221.87,198.84,233.61,195.66,233.61,191.74Z"/><path class="cls-14" d="M223.18,213.87c-.31,1.07-4,2.87-8.6,3s-11.83-.5-14.2-.62-3.32-.45-3.38-1.07-.34-3.7,0-4.13a33.22,33.22,0,0,0,10.4,1.63c6.64,0,11.79-.83,15.7-2.55A12.76,12.76,0,0,1,223.18,213.87Z"/><path d="M185.66,249.24c-10.55,0-19.12-5.61-19.12-12.52,0-6.1,11.42-10.52,19.12-10.52,9,0,19.12,4.32,19.12,10.52C204.78,243.63,196.2,249.24,185.66,249.24Zm0-21c-7.32,0-17.12,4.21-17.12,8.52,0,5.8,7.68,10.52,17.12,10.52s17.12-4.72,17.12-10.52C202.78,232.42,194.3,228.2,185.66,228.2Z"/><path d="M175.4,247.22a1,1,0,0,1-.74-.33,1,1,0,0,1-.16-1.11l3.07-6.3-10-3.41a1,1,0,0,1-.66-1.11,1,1,0,0,1,1-.83l12.2.2,3.68-7.54a1,1,0,0,1,.82-.56,1,1,0,0,1,.89.41l5.72,7.88,12.5.21a1,1,0,0,1,1,.84,1,1,0,0,1-.64,1.1L195.14,240l3.44,4.74a1,1,0,0,1,0,1.18,1,1,0,0,1-1.13.36l-10-3.41-11.67,4.33A1,1,0,0,1,175.4,247.22Zm4.08-7.09-2.09,4.29,7-2.61Zm10.91,1.6,4.73,1.6-1.92-2.64Zm-10-3.41,7,2.39L192,239l-1.82-2.5-8.84-.15Zm12.29-1.77,1.26,1.73,4.42-1.64Zm-18.42-.31,4.22,1.43.66-1.35Zm8-1.87,6.4.11-3.86-5.32Z"/><path class="cls-15" d="M147.79,226.94c-.79.48-4,2.72-7.28,1.84s-5.13-1.48-5.46-3,.88-3.46,1.74-4.94c.33-.56.79-1.49,1.25-2.46a5.87,5.87,0,0,1,7.56,0c.84,2,1.78,4.06,2.19,4.75C148.6,224.55,148.58,226.46,147.79,226.94Z"/><path class="cls-16" d="M145.6,218.42a5.87,5.87,0,0,0-7.56,0,32.18,32.18,0,0,0,1.57-3.71,4.67,4.67,0,0,0,4.37-.11S144.76,216.48,145.6,218.42Z"/><path class="cls-17" d="M145.07,212.93A2,2,0,0,1,144,214.6a4.67,4.67,0,0,1-4.37.11,2.12,2.12,0,0,1-1.3-1.78,1.91,1.91,0,0,1,1-1.73,2.34,2.34,0,0,0,2.39,1.36,2.4,2.4,0,0,0,2.37-1.28A1.87,1.87,0,0,1,145.07,212.93Z"/><path class="cls-16" d="M144.12,210.93a1,1,0,0,1-.06.35,2.4,2.4,0,0,1-2.37,1.28,2.34,2.34,0,0,1-2.39-1.36,1.24,1.24,0,0,1,0-.27c0-1.33,1.44-1.63,2.42-1.63C142.42,209.3,144.12,209.63,144.12,210.93Z"/><path class="cls-18" d="M327.14,182.89a1.59,1.59,0,0,0-.33.55c-.19.57-.18,1-3.85,1.86-4.75,1.13-4.47,1.13-8.59.71s-9.08-.15-10.56-1.78-3.46-1.56-5-2.62a14.16,14.16,0,0,1-2-1.62l-.07-.08a5,5,0,0,1-.76-1.18,4.43,4.43,0,0,1-.24-3.36c1.42-1.49,5.18-2.06,6.81-2.56s11.14.15,14.4,0,5.82,1.85,8,2,2.12,2.74,2.12,2.74a23.18,23.18,0,0,1,.34,2.59C327.57,181.28,327.54,182.47,327.14,182.89Z"/><path class="cls-19" d="M325.58,187c-.78,0-2.41,1.07-6.1,2.55a9.63,9.63,0,0,1-9.43-.78,42.3,42.3,0,0,0-7.52-4.18c-2.8-1.26-3.81-2.38-5.67-4.6a14.16,14.16,0,0,0,2,1.62c1.51,1.06,3.48,1,5,2.62s6.45,1.35,10.56,1.78,3.84.42,8.59-.71c3.67-.88,3.66-1.29,3.85-1.86A2.35,2.35,0,0,1,325.58,187Z"/><path class="cls-18" d="M334.31,206.79c-.21,4.61-.57,7-2.77,8.72s-8.58,2.35-13.33,2.63-11.49-.22-13.2-1.91-2.76-4.83-3.4-8.16-1.85-9.86-2.84-15.6-2.51-10.38-2.74-13.74a5,5,0,0,0,.76,1.18l.07.08c1.86,2.22,2.87,3.34,5.67,4.6a42.3,42.3,0,0,1,7.52,4.18,9.63,9.63,0,0,0,9.43.78c3.69-1.48,5.32-2.55,6.1-2.55a2.35,2.35,0,0,0,1.23-3.56,1.59,1.59,0,0,1,.33-.55c.4-.42.43-1.61.34-2.76,0,0,2.93,9.35,4.06,13.18S334.52,202.18,334.31,206.79Z"/><path class="cls-19" d="M306,207.21a28.42,28.42,0,0,0-1.16-4.06c-1.1-3.37-1.74-5.47-1.32-6.19.7-1.21,4.33,0,5.43.37l-.21.6c-2-.73-4.38-1.16-4.68-.65s.71,3.62,1.38,5.67a30.33,30.33,0,0,1,1.19,4.19Z"/><path class="cls-19" d="M303.33,203.72l-.58-.25c0-.1,1.11-2.46,5.79-1.82l-.09.62C304.25,201.7,303.34,203.7,303.33,203.72Z"/><path class="cls-19" d="M312.46,206.13c-.52-1.65-1.83-9.81-1.89-10.15l.62-.1c0,.08,1.37,8.46,1.87,10.07Z"/><path class="cls-19" d="M314.45,205a1.5,1.5,0,0,1-.37-.05c-1.05-.33-.74-3.45-.56-4.78l.63.09c-.3,2.18-.18,4,.12,4.09a1.15,1.15,0,0,0,.77-.15,3.19,3.19,0,0,0,1.39-1.6,18.56,18.56,0,0,0,.39-3l.62,0s.34,2.79,1.38,3.72l-.42.47a4.79,4.79,0,0,1-1.15-2.11,8.2,8.2,0,0,1-.22,1.1,3.7,3.7,0,0,1-1.7,2A1.85,1.85,0,0,1,314.45,205Z"/><path class="cls-19" d="M320.75,203.18c0-.12-.92-2.92.2-4.3a2.28,2.28,0,0,1,2.12-.72l-.06.62a1.67,1.67,0,0,0-1.57.49c-.75.93-.32,3-.09,3.72Z"/><line class="cls-20" x1="283.76" y1="207" x2="283.76" y2="206.99"/><path class="cls-21" d="M300.4,236.67c-1.74-.27-5.46-1.27-10.22-2.67-3.13-.92-6.7-2-10.45-3.19-3.1-1-6.31-2-9.49-3s-6.54-2.14-9.59-3.15c-3.29-1.1-6.34-2.13-8.92-3h0a69.64,69.64,0,0,1-8.13-3.09c-1.68-1.37-1.29-2.06.21-4.87a4.57,4.57,0,0,0,.66-2.16c0,.72.28.78.89,1.36s15.63,3.8,24.19,7.15,28.88,9.46,30.38,9.15C299.93,229.15,299.54,236.3,300.4,236.67Z"/><path class="cls-17" d="M301.43,236.71a2,2,0,0,1-1,0h0c-.86-.37-.47-7.52-.47-7.52,1.47-.31,6.38-8.52,6.53-8.78,1.31,1.14,1.68,3.55,1.91,5.21C308.61,227.46,303.12,235.64,301.43,236.71Z"/><path class="cls-22" d="M306.46,220.37c-.15.26-5.06,8.47-6.53,8.78s-21.82-5.79-30.38-9.15-23.57-6.57-24.19-7.15-.89-.64-.89-1.36v0c0-.72-.27-.87.82-1.28,1.76-.66,6.22-6.21,7.06-5.91s0-.78,2.63,0c0,0,49.2,14.84,51,15.73A2.4,2.4,0,0,1,306.46,220.37Z"/><path class="cls-17" d="M301.43,236.71a32.38,32.38,0,0,1-2.38,4.38c-.56.5-4.43.43-6,0s-2.87-7.09-2.87-7.09c4.76,1.4,8.48,2.4,10.22,2.67h0A2,2,0,0,0,301.43,236.71Z"/><path class="cls-17" d="M290.18,234s-.5,2.52-1.26,3.27-4,.63-5.55,0-3.51-6.1-3.64-6.44v0C283.48,232,287.05,233.08,290.18,234Z"/><path class="cls-17" d="M278.78,234.27c-1.46.81-4.35-.31-5.52-.62s-3-5.85-3-5.85c3.18,1,6.39,2,9.49,3v0C279.77,231.08,280.16,233.5,278.78,234.27Z"/><path class="cls-17" d="M269.42,231c-1.06.87-3.75-.06-5.44-.25s-3.25-5.8-3.33-6.06c3.05,1,6.3,2.08,9.59,3.15C270.24,227.8,270.49,230.09,269.42,231Z"/><path class="cls-17" d="M260.65,224.65c0,.16-.82,2.95-1.85,3.56s-4-.75-4.46-1.07-2.54-5.37-2.61-5.52C254.31,222.52,257.36,223.55,260.65,224.65Z"/><path class="cls-17" d="M251.73,221.61h0c0,.16-.15,2.85-1.18,3.28s-3.69.56-4.82-1.18a25.56,25.56,0,0,1-2.13-5.2A69.64,69.64,0,0,0,251.73,221.61Z"/><path class="cls-23" d="M260.65,224.65h0"/><path class="cls-23" d="M306.47,220.37h0"/><path class="cls-17" d="M262.45,214.64c-1.39-.42-2.07-1-2.08-1.68,0-1.74,4.48-3.32,5-3.49a1.28,1.28,0,0,1,1.61.84c.54,1.13.44,3.07-.43,3.61-1.22.76-4.27-1.36-4.86-1.79l.23-.33c-.56.4-.93.8-.92,1.15s.59.78,1.64,1.1Zm-.35-3c1.35,1,3.48,2.11,4.11,1.72s.64-1.89.2-2.83c-.33-.69-.72-.56-.85-.52A16.38,16.38,0,0,0,262.1,211.68Z"/><path class="cls-17" d="M270.7,217.43a2.32,2.32,0,0,1-1.24-.38,2,2,0,0,1-1.06-2l.6.14c-.1.41.23.93.79,1.29a1.32,1.32,0,0,0,1.47.11c.74-.6,2.15-2.78,2-3.88a.53.53,0,0,0-.28-.46,2.28,2.28,0,0,0-2.25,0,.57.57,0,0,0-.22.62c.27,1.05.65,1.21,1.56,1.15l0,.61a1.79,1.79,0,0,1-2.19-1.61,1.16,1.16,0,0,1,.42-1.25,2.87,2.87,0,0,1,2.92-.12,1.15,1.15,0,0,1,.61.95c.15,1.37-1.39,3.72-2.25,4.42A1.49,1.49,0,0,1,270.7,217.43Z"/><circle class="cls-7" cx="162.91" cy="115.84" r="1.06"/><circle class="cls-7" cx="176.38" cy="114.78" r="1.06"/><path class="cls-7" d="M162.91,123.15l12.41-.93s3.85,4.78,0,8.24-12.85.8-14-1.6A4.29,4.29,0,0,1,162.91,123.15Z"/><path class="cls-2" d="M263.18,47.4c-3.19-3.5-5-1.71-5.05-.47,0,0-2.57-4.12-4.28-2.64-1.5,1.3-.61,3.43-.37,3.93-.35-.6-2.17-3.51-3.29-1.83a3.87,3.87,0,0,0-.77,2.36c-.33-1.12-1.21-3.11-3.12-1.66-2.57,1.94-3.19,3.27-1.87,5.52s2.73,4.77,3.89,5.54a3.88,3.88,0,0,0,4,0s5.92-4.6,9.13-2.23C261.44,55.92,266.37,50.9,263.18,47.4Zm-13.76,1.36a6.26,6.26,0,0,1,.14.63A1.69,1.69,0,0,1,249.42,48.76Z"/><path class="cls-22" d="M235.59,248.3c-9.19.84-14.27-1.15-14.71-6s7.93-11.37,14.67-12l1.24-.09-10.53,4.88-.56,2.1c-1.76,1.77-2.69,3.77-2.56,5.23.29,3.1,5.67,4.22,12.75,3.58s10.69-5.52,10.41-8.62a3.7,3.7,0,0,0-1.88-2.77l.23-3.7c3.74,1.08,5.93,3.29,6.2,6.24C251.3,242,244.79,247.46,235.59,248.3Z"/><polygon class="cls-24" points="231.11 236.05 229.7 243.66 224.44 241.95 225.7 237.17 226.26 235.07 227.92 235.4 231.11 236.05"/><path class="cls-17" d="M235.89,246c-7.08.64-12.46-.48-12.75-3.58-.13-1.46.8-3.46,2.56-5.23L224.44,242l5.26,1.71,14.65-8,.07-1a3.7,3.7,0,0,1,1.88,2.77C246.58,240.46,243,245.33,235.89,246Z"/><polygon class="cls-25" points="244.35 235.62 229.7 243.66 231.11 236.05 236.85 233.06 242.06 230.34 244.77 228.93 244.65 230.89 244.42 234.59 244.35 235.62"/><polygon class="cls-26" points="244.77 228.93 242.06 230.34 236.85 233.06 231.11 236.05 227.92 235.4 226.26 235.07 236.79 230.19 241.01 228.23 244.77 228.93"/><path class="cls-27" d="M345.37,219.18c0,2.36-4.72,4.27-10.54,4.27s-10.54-1.91-10.54-4.27,4.72-4.26,10.54-4.26S345.37,216.83,345.37,219.18Z"/><path class="cls-28" d="M345.37,219.18v2.24c-.31,2.25-4.91,4-10.53,4-5.82,0-10.54-1.91-10.54-4.27v-2c0,2.36,4.72,4.27,10.54,4.27S345.37,221.54,345.37,219.18Z"/><path class="cls-28" d="M344.37,239.18v2c0,2.36-4.72,4.27-10.54,4.27s-10.54-1.91-10.54-4.27v-2c0,2.36,4.72,4.27,10.54,4.27S344.37,241.54,344.37,239.18Z"/><path class="cls-29" d="M345.36,221.42l-1,17.76c0,2.36-4.72,4.27-10.54,4.27s-10.54-1.91-10.54-4.27l1-18c0,2.36,4.72,4.27,10.54,4.27C340.45,225.45,345.05,223.67,345.36,221.42Z"/><path class="cls-28" d="M326.12,237.85c-.09-1.33-.51-8,.25-9.43a1.94,1.94,0,0,1,2.6-.59,2.29,2.29,0,0,1,1.17,3.09l-.1.26c-.65,1.62-.72,1.79-1.42,2a4.59,4.59,0,0,0-.45.18l-.43-.9a5.16,5.16,0,0,1,.55-.22c.27-.1.27-.1.82-1.47l.11-.27a1.32,1.32,0,0,0-.67-1.81c-.48-.22-1.09-.22-1.3.17-.48.88-.34,5.92-.14,8.88Z"/><path class="cls-28" d="M332.9,236.11a4.86,4.86,0,0,1-1.84-.4,1.31,1.31,0,0,1-.89-1c-.22-1.3,1.61-3,2-3.3l.66.75c-.72.63-1.75,1.83-1.66,2.38,0,0,0,.16.29.27a2.57,2.57,0,0,0,2.36.08,1.29,1.29,0,0,0,.33-1.29A10.7,10.7,0,0,1,334,232v-.2l-.27-.06.18-1c.89.16,1.09.38,1.09,1.23a9.94,9.94,0,0,0,.11,1.47,2.22,2.22,0,0,1-.7,2.22A2.47,2.47,0,0,1,332.9,236.11Z"/><path class="cls-28" d="M340.35,236a2.28,2.28,0,0,1-1.59-.55l-.09-.08a1.6,1.6,0,0,1-.38.4,1.45,1.45,0,0,1-1.44.07,1.64,1.64,0,0,1-.92-.91,4.89,4.89,0,0,1,.3-3.16l.92.39a3.94,3.94,0,0,0-.3,2.38.64.64,0,0,0,.37.37.6.6,0,0,0,.5,0c.22-.15.31-.7.31-1l1,0a1.32,1.32,0,0,0,.4.81,1.47,1.47,0,0,0,1.13.28.68.68,0,0,0,.63-.48,4.68,4.68,0,0,0-.47-3.32l.75-.67a5.55,5.55,0,0,1,.65,4.36,1.69,1.69,0,0,1-1.48,1.11Z"/><ellipse class="cls-30" cx="117.01" cy="240.74" rx="5.52" ry="2.21"/><path class="cls-31" d="M122.53,240.74v14.94c0,1.22-2.47,2.21-5.52,2.21s-5.52-1-5.52-2.21V240.74C111.49,242,114,243,117,243S122.53,242,122.53,240.74Z"/><path class="cls-32" d="M116.51,240.58c-.18-2.88,1.31-3.78,2.59-4l.18,1c-.83.16-1.91.65-1.77,3Z"/><ellipse class="cls-30" cx="130.61" cy="230.8" rx="5.52" ry="2.21"/><path class="cls-31" d="M136.14,230.8v14.95c0,1.21-2.47,2.2-5.53,2.2s-5.52-1-5.52-2.2V230.8c0,1.22,2.48,2.21,5.52,2.21S136.14,232,136.14,230.8Z"/><path class="cls-32" d="M130.12,230.65c-.18-2.89,1.3-3.79,2.58-4l.19,1c-.83.15-1.92.64-1.78,3Z"/><ellipse class="cls-30" cx="149.39" cy="233.18" rx="5.52" ry="2.21"/><path class="cls-31" d="M154.91,233.18v14.94c0,1.22-2.47,2.21-5.52,2.21s-5.52-1-5.52-2.21V233.18c0,1.22,2.47,2.21,5.52,2.21S154.91,234.4,154.91,233.18Z"/><path class="cls-32" d="M148.89,233c-.18-2.89,1.3-3.79,2.58-4l.19,1c-.83.16-1.92.64-1.77,3Z"/><ellipse class="cls-30" cx="132.89" cy="242.01" rx="5.52" ry="2.21"/><path class="cls-31" d="M138.41,242V257c0,1.22-2.47,2.21-5.52,2.21s-5.52-1-5.52-2.21V242c0,1.22,2.47,2.21,5.52,2.21S138.41,243.23,138.41,242Z"/><path class="cls-32" d="M132.39,241.85c-.18-2.89,1.3-3.78,2.58-4l.19,1c-.83.16-1.92.65-1.77,3Z"/><ellipse class="cls-30" cx="150.27" cy="244.11" rx="5.52" ry="2.21"/><path class="cls-31" d="M155.79,244.11v14.94c0,1.22-2.47,2.21-5.52,2.21s-5.53-1-5.53-2.21V244.11c0,1.22,2.48,2.21,5.53,2.21S155.79,245.33,155.79,244.11Z"/><path class="cls-32" d="M149.77,244c-.18-2.89,1.3-3.79,2.58-4l.19,1c-.83.16-1.92.64-1.78,3Z"/><path class="cls-22" d="M316.09,232.78c0,.12-.59.24-1.32.26s-1.34,0-1.35-.16.6-.23,1.33-.26S316.09,232.67,316.09,232.78Z"/><path class="cls-33" d="M316.09,232.78l.08,2.19c0,.05-.11.09-.29.14a6,6,0,0,1-1,.12,7.82,7.82,0,0,1-1.05,0c-.19,0-.3-.08-.3-.13l-.08-2.18c0,.11.61.19,1.35.16S316.1,232.9,316.09,232.78Z"/><path class="cls-34" d="M318.24,249c0,.66-1.25,1.24-2.85,1.3s-2.92-.43-2.95-1.09a41.5,41.5,0,0,0,0-5.2,18.21,18.21,0,0,1-.24-4.82c.22-1,1.7-1.92,1.6-3.95a7.82,7.82,0,0,0,1.05,0,6,6,0,0,0,1-.12c.11,1.94,1.18,2.46,1.69,3.25s.21,3.8.46,4.75A52,52,0,0,1,318.24,249Z"/><line class="cls-35" x1="315.88" y1="235.11" x2="315.88" y2="235.11"/><line class="cls-35" x1="313.8" y1="235.19" x2="313.8" y2="235.18"/><path class="cls-36" d="M265.28,242.08c0,1.25-1.26,1.63-2.83,1.63s-2.83-.38-2.83-1.63a1.86,1.86,0,0,1,.18-.78,3.11,3.11,0,0,1,5.3,0A1.72,1.72,0,0,1,265.28,242.08Z"/><path class="cls-37" d="M266.22,243.43a1.74,1.74,0,0,1-.37,1.13,3.07,3.07,0,0,1-2.05.95,9.56,9.56,0,0,1-1.35.09,10.28,10.28,0,0,1-1.13-.06,3.32,3.32,0,0,1-2.27-1,1.8,1.8,0,0,1-.37-1.13,2.71,2.71,0,0,1,1.12-2.13,1.86,1.86,0,0,0-.18.78c0,1.25,1.27,1.63,2.83,1.63s2.83-.38,2.83-1.63a1.72,1.72,0,0,0-.18-.78A2.73,2.73,0,0,1,266.22,243.43Z"/><path class="cls-38" d="M261.32,245.54l-2.12,11.61-3.51-1.68,3.36-10.91A3.32,3.32,0,0,0,261.32,245.54Z"/><path class="cls-39" d="M264.2,257.15h-5l2.12-11.61a10.28,10.28,0,0,0,1.13.06,9.56,9.56,0,0,0,1.35-.09Z"/><path class="cls-40" d="M267.19,255.62l-3,1.53-.4-11.64a3.07,3.07,0,0,0,2.05-.95Z"/><ellipse class="cls-38" cx="261.36" cy="241.01" rx="0.55" ry="0.29"/><ellipse class="cls-38" cx="262.13" cy="242.17" rx="0.55" ry="0.29"/><ellipse class="cls-38" cx="263.65" cy="241.48" rx="0.55" ry="0.29"/><ellipse class="cls-38" cx="262.85" cy="240.58" rx="0.55" ry="0.29"/><path class="cls-41" d="M159.66,203.62s-13,1.87-6.25,3,17,1.33,20.78-1.17c0,0-15.95,1.77-18.28.55S159.66,203.62,159.66,203.62Z"/><path class="cls-41" d="M157.72,208.69s-5.41,2.21.24,3.18a36.46,36.46,0,0,0,15-.81,4.6,4.6,0,0,1-1.87-1.37s-8.46,2-12.17,1S157.72,208.69,157.72,208.69Z"/><path class="cls-41" d="M159,213.67s-4.38,1.34-.93,2.74,10.73,1.37,13.94-.5a9.12,9.12,0,0,1-2.31-1.3s-5.81,2-9.06.92S159,213.67,159,213.67Z"/><path class="cls-41" d="M175.74,203.62s4.41-1.92,5.62,1.33-2.34,5.78-6.66,6.92c0,0,5.46-3.54,4.88-6.16S175.74,203.62,175.74,203.62Z"/><path class="cls-41" d="M179.08,217.55s1.34,3-11,2.87-24-.26-12.87-3.21c0,0-4.48-1-6.15,1s-.67,3.08,6.11,3.21S182.39,221.23,179.08,217.55Z"/><path class="cls-41" d="M154.58,222.7c22.9,2,27-2.78,27-2.78s-1.74,3.28-13.74,4S154.58,222.7,154.58,222.7Z"/><path class="cls-41" d="M164.8,203.27c-6.49-7.05-8.78-8-.56-14.74s5.32-10,5.32-10,3.57,4.65-2.85,10.13-4.55,7.59-3.88,9.26S164.8,203.27,164.8,203.27Z"/><path class="cls-41" d="M174.91,187.67s-9.55,3-9.62,6.54,4.69,7.87,1.28,10.48c0,0,5.76-3.21,2.68-6.53s-.2-5.63,1.74-7A27.57,27.57,0,0,0,174.91,187.67Z"/></g></g></svg>