<svg xmlns="http://www.w3.org/2000/svg" viewBox="0 0 468.08 320"><defs><style>.cls-1{fill:#471111;}.cls-2{fill:#e42d2c;}.cls-3{fill:#976882;}.cls-4{fill:#634155;}.cls-5{fill:#28c3e9;}.cls-6{fill:#926d46;}.cls-7{fill:#4a3521;}.cls-8{fill:#1e170f;}.cls-9{fill:#17130f;}.cls-10,.cls-12{fill:none;}.cls-10{stroke:#ed2390;stroke-miterlimit:10;}.cls-11{fill:#3c9444;}.cls-13{fill:#4c4c4b;}.cls-14{fill:#2d2c2a;}.cls-15{fill:#141213;}.cls-16{fill:#f99c1c;}.cls-17{fill:#eadb23;}.cls-18{fill:#958932;}.cls-19{fill:#e8ce5d;}.cls-20{fill:#af9939;}.cls-21{fill:#c82027;}.cls-22{fill:#ddd;}.cls-23{fill:#a3a3a3;}.cls-24{fill:#c6c6c5;}.cls-25{fill:#ababab;}.cls-26{fill:#f0efef;}.cls-27{fill:#dcdbdb;}.cls-28{fill:#cccccb;}.cls-29{fill:#fff;}.cls-30{fill:#221113;}.cls-31{fill:#e0e0e0;}.cls-32{fill:#b9ab32;}</style></defs><title>Asset 7</title><g id="Layer_2" data-name="Layer 2"><g id="Layer_3" data-name="Layer 3"><rect class="cls-1" width="468.08" height="320"/></g><g id="Layer_1-2" data-name="Layer 1"><path class="cls-2" d="M67.33,40.3c-5.31,43.22-18.07,52.08,5,102.38s-3.19,66.81-3.19,66.81a203.45,203.45,0,0,0-5.31-21.82c-12-45.34-27.63-46.42-27.63-46.42,17.35,15.93,13.1,23,15.94,67.91s39.32,39.78,39.32,39.78l283.6-.18s32.05,6.76,40.55-17.24-15.58-24.36-3.89-75.73c0,0-18.49,37.38-8.15,58.49,0,0-30.47,5.28-22-45.38s43.22-67,6-110.2c0,0,22.31,13-7.8,61.06S343,162.52,343,162.52s18.07-21.74,13.11-45.41,19.84-31.49,11-51.84c0,0,2.48,6.46-9.92,22.45S346.85,131,338.34,141.25,313.54,160,313.54,160c-17-40.78,32.24-70.46,0-80.73s-37.39-41.79-37.39-41.79C278.08,86,299.73,63,305.75,94.15s-49.7,39.68-49.7,39.68a50.49,50.49,0,0,1-31.28-42.45c-3.4-32.88-22.82-31.24-17.37-42a68.79,68.79,0,0,0,6.6-21c-4.61,15.75-24.8,8.34-12.82,39.12s-30.35,44.16-30.35,44.16c-3.13-24.25-35.13-36.54-27.2-54.31s-4.83-38.7-4.83-38.7c10.53,25.86-12.66,40.74,0,64.55s-22.94,50.59-22.94,50.59C106.65,114.7,80.08,108.67,73,94.15s-5.9-52.06-5.9-52.06"/><path class="cls-3" d="M195.28,106.47a24.81,24.81,0,0,1-.67,4.13c-.41,1.66-.86,3.42-1.37,5.21-2,7.13-4.86,14.89-9.72,19.95a17,17,0,0,1-15.37,5.3,35,35,0,0,1-12.29-3.88,26.42,26.42,0,0,1-13.32-18.28,38.62,38.62,0,0,1-.85-8.3c0-.53,0-1.07.06-1.61.87-12.27,11.47-25.66,24.79-25.88.53,0,1.07,0,1.61,0l1.3.1C185.89,84.69,196.22,93.72,195.28,106.47Z"/><path class="cls-4" d="M142.54,118.9a5.41,5.41,0,0,1-2.93.86c-3,0-5.14-.74-4.41-5.41.26-1.66,2.07-4.62,4.41-5.41a3,3,0,0,1,2.14,0c0,.54-.06,1.08-.06,1.61A38.62,38.62,0,0,0,142.54,118.9Z"/><path class="cls-4" d="M201.18,111.7c0,3-1.42,5.41-4.41,5.41a5.42,5.42,0,0,1-3.53-1.3c.51-1.79,1-3.55,1.37-5.21a24.81,24.81,0,0,0,.67-4.13,6.08,6.08,0,0,1,1.49-.18C199.76,106.29,201.18,109.61,201.18,111.7Z"/><path class="cls-5" d="M196.27,167.27a58.68,58.68,0,0,1-1.57,13.66,17.09,17.09,0,0,1-3,6.42,32.69,32.69,0,0,1-2.68,2.93,17.07,17.07,0,0,1-11,5.07,32,32,0,0,1-5.75-.15h-.06c-4-.49-8.07-1.88-10.95-4.91l-.14-.15a11.28,11.28,0,0,1-.87-1A54.37,54.37,0,0,1,150,159a59.14,59.14,0,0,1,.13-6.63c.05-.65.11-1.28.19-1.89,1.21-9.71,5.57-13.32,5.57-13.32a35,35,0,0,0,12.29,3.88,17,17,0,0,0,15.37-5.3,58.33,58.33,0,0,1,8.23,12.66,48.09,48.09,0,0,1,3.45,9.52h0A36.55,36.55,0,0,1,196.27,167.27Z"/><path class="cls-6" d="M392.84,265.38s-6.59.58-22.77-1.65c-7.64-1.05-21.72-1-41.14.15-19.24,1.17-31.45,2.05-43.88,2.05-10.84,0-62.81.65-62.81.65-9.43-.45-58.41-2.1-87,.45A470.14,470.14,0,0,1,80,268.38l-.6-4.5s13.78-18,20.07-23.51,32.8-39.09,32.8-39.09,2,1.2,8.24,1.34l20.3.47,11.49.26h0l9.59.22c1.22-.06,6.74,0,14.38,0l11.13.06c20.6.1,47.14.18,54.08-.48,11.36-1.08,37.55,0,37.55,0s39.74.08,40.64.53,8.83,9.89,12.58,17.53,17.67,23.21,22.77,27.56S392.84,265.38,392.84,265.38Z"/><path class="cls-7" d="M392.84,265.38v13.33s-.9-3-6.14-3-23.52.29-26.06.44-36.55,3.9-42.39,3.9-52.72,4.49-60.66,4.19-39.39,1.08-48.08,0-43.74-2.24-51.52-2c-4.19.15-27.86-.45-34.75-.45s-23.36,1-30.4-.3-10.94-1.95-10.94-1.95L80,268.38A470.14,470.14,0,0,0,135.22,267c28.61-2.55,77.59-.9,87-.45,0,0,52-.65,62.81-.65,12.43,0,24.64-.88,43.88-2.05,19.42-1.17,33.5-1.2,41.14-.15C386.25,266,392.84,265.38,392.84,265.38Z"/><path class="cls-8" d="M172.3,203.35h0l-11.49-.26c0-2.2.26-10.12.34-13l.14.15c2.88,3,6.94,4.42,10.95,4.91Z"/><path class="cls-9" d="M207.4,203.62l-11.13-.06c-.88-3.4-7.23-13.28-7.23-13.28a32.69,32.69,0,0,0,2.68-2.93,17.09,17.09,0,0,0,3-6.42c.75,1.07,2.94,4.14,3.71,5.38C200.16,189.13,207,201.25,207.4,203.62Z"/><path class="cls-10" d="M194.7,180.93l-.27-.37"/><path class="cls-8" d="M165,60.15a10.16,10.16,0,0,1-3.68,1.3,4.91,4.91,0,0,1-2.4-.12,1,1,0,0,1-.62-.58c-.16-.51.27-1.15,1.09-1.74a8.75,8.75,0,0,1,2.49-1.2,9.23,9.23,0,0,1,2.1-.43,7.16,7.16,0,0,1,1,0c.79.08,1.34.34,1.48.78S166.06,59.49,165,60.15Z"/><path class="cls-11" d="M166.28,74.73a5.7,5.7,0,0,1-3.37-.39l-1.6-12.89a9.17,9.17,0,0,0,1.6-.37C165,64.88,165.89,70.24,166.28,74.73Z"/><path class="cls-11" d="M170.83,71.16a6.44,6.44,0,0,1-2.13,2.65c-.52-4.14-1.38-8.77-2.82-12Z"/><path class="cls-8" d="M169.45,83.24l-1.3-.1c-.54,0-1.08,0-1.61,0a70.23,70.23,0,0,0-.26-8.38c-.39-4.49-1.31-9.85-3.37-13.65a9.11,9.11,0,0,0,2.08-.93l.89,1.68c1.44,3.21,2.3,7.84,2.82,12C169.34,78.9,169.45,83.24,169.45,83.24Z"/><path class="cls-12" d="M165.88,61.83a12,12,0,0,0-.89-1.68"/><path class="cls-10" d="M166.54,83.24v-.13"/><path class="cls-11" d="M168.52,38,164,57.38a9.23,9.23,0,0,0-2.1.43,8.75,8.75,0,0,0-2.49,1.2L147.5,44.56C153.22,34.82,168.52,38,168.52,38Z"/><line class="cls-12" x1="163.97" y1="57.39" x2="163.97" y2="57.38"/><path class="cls-11" d="M183.52,50.86l-17,7.29c-.14-.44-.69-.7-1.48-.78l17.86-12.1A6.15,6.15,0,0,1,183.52,50.86Z"/><line class="cls-12" x1="165" y1="57.37" x2="164.99" y2="57.38"/><path class="cls-11" d="M158.91,61.33l-12.85,13c-2.29-.58-2.43-4.44-2.43-4.44l14.66-9.15A1,1,0,0,0,158.91,61.33Z"/><line class="cls-12" x1="158.92" y1="61.32" x2="158.91" y2="61.33"/><path class="cls-8" d="M150.1,152.39A59.14,59.14,0,0,0,150,159c-1.64,0-11.28-.43-19.77-.85a90.32,90.32,0,0,1-26.64-5.53c-7.93-3.11-7.22-6.23-5.38-14.73s-2.69-6.81-10.91-8.08S82,119.34,84.15,116.37s6.8-7.09,2.55-10.08-6.38-4.94-8.5-9.9,5.38-29.47,5.67-31.46,6.8,0,6.8,0S89.11,74.85,88,85.62s3.54,9.07,10.2,9.07-1.42,12-3.26,17-6.38,7.5,5.52,8.06,10.92,2.56,11.48,5.11-1,15.73,3,21.68,20.69,3,23.9,3,11.49,1,11.49,1C150.21,151.11,150.15,151.74,150.1,152.39Z"/><line class="cls-10" x1="149.98" y1="159.02" x2="149.97" y2="159.02"/><path class="cls-3" d="M90.67,64.93s5.18,1.13,5.67-1.88S95,53.11,92,57c0,0,.53-4.1-1.33-4.16s-2.76,1.39-2.52,4.28c0,0-.66-3.25-2.35-3.13s-2.53,2-1.86,4.27c0,0-1.69-3.91-3.8-2.95s-3.14,2.95-2.32,5.6.7,3.88,2.32,4.26a9,9,0,0,0,3.73-.21"/><path class="cls-8" d="M258.79,62.18c.42,2.09,1.25,6.49-2.65,9.52s-10.3,5.94-11.28,7.2-2.5,2.64,2.37,5.57,4.74,11.69.42,14.2-14.76,7.24-15.88,10.1,4.46,11.21.7,16.92-15.18,15.87-19.91,18.24-14.92,9.92-17.36,14a48.09,48.09,0,0,0-3.45-9.52,23.38,23.38,0,0,1,8.13-7.16c5.15-2.62,18.38-10.28,21.87-17.38s1.11-10.31,0-14.07-3.21-7.1,2.92-11,12.81-8.63,8.91-11.42-8.91-4.32-2.78-9.33S249.6,68.58,251.27,67s.84-4,.84-5.53.2-3.3.2-3.3,5.92-4.6,9.13-2.23C261.44,55.92,258.37,60.1,258.79,62.18Z"/><path d="M239.92,248.94c-10.55,0-19.13-5.62-19.13-12.52,0-6.11,11.43-10.53,19.13-10.53,9,0,19.12,4.32,19.12,10.53C259,243.32,250.46,248.94,239.92,248.94Zm0-21.05c-7.32,0-17.13,4.22-17.13,8.53,0,5.8,7.68,10.52,17.13,10.52S257,242.22,257,236.42C257,232.11,248.56,227.89,239.92,227.89Z"/><path d="M229.66,246.92a1,1,0,0,1-.74-.33,1,1,0,0,1-.16-1.11l3.07-6.3-10-3.41a1,1,0,0,1-.66-1.12,1,1,0,0,1,1-.83l12.2.21,3.68-7.55a1,1,0,0,1,1.71-.15l5.72,7.89,12.5.21a1,1,0,0,1,.33,1.94l-8.88,3.29,3.44,4.74a1,1,0,0,1,0,1.18,1,1,0,0,1-1.13.35l-10-3.41L230,246.85A.87.87,0,0,1,229.66,246.92Zm4.08-7.09-2.09,4.28,7-2.61Zm10.91,1.59,4.72,1.61-1.91-2.65Zm-10-3.41,7,2.39,4.59-1.7-1.82-2.5-8.84-.15Zm12.3-1.77,1.26,1.74,4.42-1.64Zm-18.43-.31,4.23,1.44.66-1.36Zm8.06-1.86,6.4.11-3.86-5.33Z"/><circle class="cls-8" cx="162.91" cy="115.84" r="1.06"/><circle class="cls-8" cx="176.38" cy="114.78" r="1.06"/><path class="cls-8" d="M162.91,123.15l12.41-.93s3.85,4.78,0,8.24-12.85.8-14-1.6A4.29,4.29,0,0,1,162.91,123.15Z"/><path class="cls-3" d="M263.18,47.4c-3.19-3.5-5-1.71-5.05-.47,0,0-2.57-4.12-4.28-2.64-1.5,1.3-.61,3.43-.37,3.93-.35-.6-2.17-3.51-3.29-1.83a3.87,3.87,0,0,0-.77,2.36c-.33-1.12-1.21-3.11-3.12-1.66-2.57,1.94-3.19,3.27-1.87,5.52s2.73,4.77,3.89,5.54a3.88,3.88,0,0,0,4,0s5.92-4.6,9.13-2.23C261.44,55.92,266.37,50.9,263.18,47.4Zm-13.76,1.36a6.26,6.26,0,0,1,.14.63A1.69,1.69,0,0,1,249.42,48.76Z"/><ellipse class="cls-13" cx="242.95" cy="210.48" rx="5.52" ry="2.21"/><path class="cls-14" d="M248.47,210.48v14.94c0,1.22-2.47,2.21-5.52,2.21s-5.52-1-5.52-2.21V210.48c0,1.21,2.47,2.2,5.52,2.2S248.47,211.69,248.47,210.48Z"/><path class="cls-15" d="M242.45,210.32c-.18-2.89,1.31-3.79,2.58-4l.19,1c-.83.16-1.92.64-1.77,3Z"/><ellipse class="cls-13" cx="224.91" cy="215.59" rx="5.52" ry="2.21"/><path class="cls-14" d="M230.43,215.59v14.94c0,1.22-2.46,2.21-5.52,2.21s-5.52-1-5.52-2.21V215.59c0,1.22,2.48,2.21,5.52,2.21S230.43,216.81,230.43,215.59Z"/><path class="cls-15" d="M224.41,215.43c-.18-2.89,1.31-3.79,2.59-4l.18,1c-.83.16-1.91.64-1.77,3Z"/><ellipse class="cls-13" cx="261.44" cy="218.52" rx="5.52" ry="2.21"/><path class="cls-14" d="M267,218.52v14.94c0,1.22-2.47,2.21-5.52,2.21s-5.52-1-5.52-2.21V218.52c0,1.22,2.47,2.21,5.52,2.21S267,219.74,267,218.52Z"/><path class="cls-15" d="M260.94,218.36c-.18-2.88,1.31-3.78,2.58-4l.19,1c-.83.16-1.92.65-1.77,3Z"/><path class="cls-16" d="M223.73,212.79c0-.95-.78-11.72-1.73-11.72s-1.72,10.77-1.72,11.72a1.73,1.73,0,0,0,3.45,0Z"/><path class="cls-16" d="M265.43,215.93c0-1-.77-11.72-1.72-11.72S262,215,262,215.93a1.72,1.72,0,0,0,3.44,0Z"/><path class="cls-17" d="M264.79,214.51c0,3.92-11.74,7.1-26.21,7.1-13.89,0-25.25-.17-26.15-3.64,0-.06,0-.12,0-.18a2.46,2.46,0,0,1,0-.28c0-3.93,11.73-9.11,26.21-9.11S264.79,210.58,264.79,214.51Z"/><path class="cls-18" d="M254.36,236.64c-.31,1.07-4,2.87-8.6,3s-11.83-.5-14.2-.62-3.32-.45-3.38-1.07-.34-3.7,0-4.13a33.22,33.22,0,0,0,10.4,1.63c6.64,0,11.79-.83,15.7-2.55A12.76,12.76,0,0,1,254.36,236.64Z"/><ellipse class="cls-13" cx="258.93" cy="237.74" rx="5.52" ry="2.21"/><path class="cls-14" d="M264.45,237.74v14.94c0,1.22-2.47,2.21-5.52,2.21s-5.52-1-5.52-2.21V237.74c0,1.22,2.47,2.21,5.52,2.21S264.45,239,264.45,237.74Z"/><path class="cls-15" d="M258.43,237.58c-.18-2.89,1.31-3.78,2.58-4l.19,1c-.83.16-1.92.64-1.77,3Z"/><ellipse class="cls-13" cx="221.13" cy="234.93" rx="5.52" ry="2.21"/><path class="cls-14" d="M226.65,234.93v14.94c0,1.22-2.47,2.21-5.52,2.21s-5.53-1-5.53-2.21V234.93c0,1.22,2.48,2.21,5.53,2.21S226.65,236.15,226.65,234.93Z"/><path class="cls-15" d="M220.63,234.77c-.18-2.89,1.3-3.78,2.58-4l.19,1c-.83.16-1.92.65-1.78,3Z"/><path class="cls-19" d="M248.49,193.91a1.51,1.51,0,0,0-.33.55c-.19.57-.19,1-3.86,1.86-4.75,1.13-4.46,1.13-8.58.71s-9.08-.15-10.56-1.78-3.46-1.56-5-2.62a13.52,13.52,0,0,1-2-1.63l-.07-.08a5.4,5.4,0,0,1-.76-1.17,4.45,4.45,0,0,1-.23-3.36c1.41-1.5,5.18-2.06,6.81-2.57s11.13.16,14.39,0,5.83,1.84,8,2,2.13,2.74,2.13,2.74.24,1.26.34,2.58A4.57,4.57,0,0,1,248.49,193.91Z"/><path class="cls-20" d="M246.93,198c-.78,0-2.41,1.06-6.1,2.55a9.65,9.65,0,0,1-9.43-.78,43.34,43.34,0,0,0-7.52-4.19c-2.8-1.25-3.81-2.37-5.68-4.6a13.52,13.52,0,0,0,2,1.63c1.51,1.06,3.47,1,5,2.62s6.45,1.35,10.56,1.78,3.83.42,8.58-.71c3.67-.88,3.67-1.29,3.86-1.86A2.35,2.35,0,0,1,246.93,198Z"/><path class="cls-19" d="M255.66,217.81c-.22,4.61-.57,6.95-2.77,8.72s-8.59,2.34-13.34,2.63-11.49-.22-13.19-1.92-2.77-4.82-3.41-8.15-1.84-9.86-2.83-15.61-2.52-10.37-2.75-13.73a5.4,5.4,0,0,0,.76,1.17l.07.08c1.87,2.23,2.88,3.35,5.68,4.6a43.34,43.34,0,0,1,7.52,4.19,9.65,9.65,0,0,0,9.43.78c3.69-1.49,5.32-2.55,6.1-2.55a2.35,2.35,0,0,0,1.23-3.56,1.51,1.51,0,0,1,.33-.55,4.57,4.57,0,0,0,.34-2.77s2.92,9.36,4.06,13.19S255.87,213.2,255.66,217.81Z"/><path class="cls-20" d="M227.34,218.23a31,31,0,0,0-1.16-4.06c-1.11-3.38-1.74-5.47-1.33-6.19.7-1.21,4.34,0,5.44.37l-.22.59c-2-.72-4.38-1.16-4.67-.65s.7,3.63,1.37,5.68a30.68,30.68,0,0,1,1.2,4.19Z"/><path class="cls-20" d="M224.67,214.74l-.57-.25c0-.1,1.11-2.47,5.78-1.82l-.08.62C225.59,212.71,224.68,214.72,224.67,214.74Z"/><path class="cls-20" d="M233.8,217.15c-.51-1.65-1.83-9.81-1.88-10.16l.62-.1c0,.09,1.36,8.47,1.86,10.07Z"/><path class="cls-20" d="M235.79,216.05a1.09,1.09,0,0,1-.36-.06c-1.05-.32-.74-3.45-.56-4.77l.62.08c-.3,2.19-.18,4,.13,4.09a1,1,0,0,0,.76-.15,3.19,3.19,0,0,0,1.4-1.59,18.18,18.18,0,0,0,.38-3l.63,0s.34,2.79,1.37,3.72l-.42.47a4.83,4.83,0,0,1-1.14-2.11,7.72,7.72,0,0,1-.22,1.09,3.81,3.81,0,0,1-1.7,2A2,2,0,0,1,235.79,216.05Z"/><path class="cls-20" d="M242.1,214.2c0-.12-.92-2.93.19-4.3a2.28,2.28,0,0,1,2.13-.73l-.06.63a1.69,1.69,0,0,0-1.58.49c-.75.93-.31,3-.08,3.72Z"/><path class="cls-21" d="M235.69,227.8c-.79.48-4,2.72-7.28,1.84s-5.13-1.48-5.46-3,.88-3.46,1.74-4.94c.33-.56.79-1.49,1.25-2.46a5.87,5.87,0,0,1,7.56,0c.84,1.95,1.78,4.06,2.19,4.75C236.5,225.41,236.48,227.32,235.69,227.8Z"/><path class="cls-22" d="M233.5,219.28a5.87,5.87,0,0,0-7.56,0,32.18,32.18,0,0,0,1.57-3.71,4.67,4.67,0,0,0,4.37-.11S232.66,217.34,233.5,219.28Z"/><path class="cls-23" d="M233,213.79a2,2,0,0,1-1.09,1.67,4.67,4.67,0,0,1-4.37.11,2.12,2.12,0,0,1-1.3-1.78,1.91,1.91,0,0,1,1-1.73,2.34,2.34,0,0,0,2.39,1.36,2.4,2.4,0,0,0,2.37-1.28A1.87,1.87,0,0,1,233,213.79Z"/><path class="cls-22" d="M232,211.79a1,1,0,0,1-.06.35,2.4,2.4,0,0,1-2.37,1.28,2.34,2.34,0,0,1-2.39-1.36,1.24,1.24,0,0,1,0-.27c0-1.33,1.44-1.63,2.42-1.63C230.32,210.16,232,210.49,232,211.79Z"/><path class="cls-24" d="M252.82,213.18c0,1.25-1.26,1.64-2.83,1.64s-2.83-.39-2.83-1.64a1.9,1.9,0,0,1,.18-.78,3.12,3.12,0,0,1,5.3,0A1.75,1.75,0,0,1,252.82,213.18Z"/><path class="cls-25" d="M253.76,214.53a1.74,1.74,0,0,1-.37,1.13,3.07,3.07,0,0,1-2,1,8.27,8.27,0,0,1-1.35.09,10.28,10.28,0,0,1-1.13-.06,3.27,3.27,0,0,1-2.27-1,1.8,1.8,0,0,1-.37-1.13,2.73,2.73,0,0,1,1.12-2.13,1.9,1.9,0,0,0-.18.78c0,1.25,1.27,1.64,2.83,1.64s2.83-.39,2.83-1.64a1.75,1.75,0,0,0-.18-.78A2.73,2.73,0,0,1,253.76,214.53Z"/><path class="cls-26" d="M248.86,216.64l-2.12,11.62-3.51-1.69,3.36-10.91A3.27,3.27,0,0,0,248.86,216.64Z"/><path class="cls-27" d="M251.74,228.26h-5l2.12-11.62a10.28,10.28,0,0,0,1.13.06,8.27,8.27,0,0,0,1.35-.09Z"/><path class="cls-28" d="M254.73,226.73l-3,1.53-.4-11.65a3.07,3.07,0,0,0,2-1Z"/><ellipse class="cls-26" cx="248.9" cy="212.11" rx="0.55" ry="0.29"/><ellipse class="cls-26" cx="249.67" cy="213.28" rx="0.55" ry="0.29"/><ellipse class="cls-26" cx="251.19" cy="212.58" rx="0.55" ry="0.29"/><ellipse class="cls-26" cx="250.39" cy="211.68" rx="0.55" ry="0.29"/><path class="cls-29" d="M240.8,207.39s-13,1.88-6.25,3.05,16.95,1.33,20.78-1.17c0,0-16,1.77-18.28.55S240.8,207.39,240.8,207.39Z"/><path class="cls-29" d="M238.86,212.47s-5.41,2.2.24,3.17a36.49,36.49,0,0,0,15-.8,4.6,4.6,0,0,1-1.87-1.37s-8.46,2-12.17,1S238.86,212.47,238.86,212.47Z"/><path class="cls-29" d="M240.13,217.45s-4.38,1.33-.93,2.74,10.73,1.37,13.94-.5a9.35,9.35,0,0,1-2.31-1.31s-5.81,2.06-9.06.93S240.13,217.45,240.13,217.45Z"/><path class="cls-29" d="M256.88,207.39s4.41-1.91,5.62,1.33-2.34,5.79-6.66,6.92c0,0,5.46-3.53,4.88-6.15S256.88,207.39,256.88,207.39Z"/><path class="cls-29" d="M260.22,221.32s1.34,3-11,2.88-24-.27-12.87-3.21c0,0-4.48-1-6.15,1s-.67,3.07,6.11,3.21S263.53,225,260.22,221.32Z"/><path class="cls-29" d="M235.72,226.47c22.9,2,27-2.77,27-2.77S261,227,249,227.68,235.72,226.47,235.72,226.47Z"/><path class="cls-29" d="M245.94,207.05c-6.49-7.05-8.78-8-.56-14.74s5.31-10,5.31-10,3.58,4.65-2.84,10.13S243.3,200,244,201.67,245.94,207.05,245.94,207.05Z"/><path class="cls-29" d="M256.05,191.45s-9.55,3-9.62,6.53,4.69,7.88,1.27,10.49c0,0,5.77-3.22,2.69-6.53s-.21-5.63,1.74-7A27.57,27.57,0,0,0,256.05,191.45Z"/><path class="cls-30" d="M226.49,228s-6.65-25.36-16.9-43.87-8.27-14.21-7.73-26.61,3.06-9.53,4.86-21.4,5.39-11.87,7.55-23,5.93-15.29,10.5-21.76,11.25-.9,11.25-.9,9-5.54,13.74-.92,10.46,13.38,13.38,18.46,4.77,7.23,3.39,14.77.61,8,6.15,21.69,3.23,25.38,1.38,28.61-20,52.61-20.92,57.38Z"/><path class="cls-31" d="M236,104.33s-8.07,14.24-6.11,14.73c1.17.3,6.11,1.27,4.13,5.22s-1.79,5.58.36,7.56,3.43-4.32,3.88,0-3.68,4.13,0,6.47,5.29,3.41,5.29,3.41a12.43,12.43,0,0,0-6.73-1.38c-3.65.38-5,.82-4,1.89s3.52.19,4.4,1.07.19,1-2.14,1.7-4.72,2.07-3.59,4.4,4.47,7.74,11.33,2.89,4.59-4.28,4.59-4.28-.75-17.23-1.26-18.43-2,1-3.58.76-3,.12-3.34-1.76-3.21-7.18.82-8.12l4-.94s-6.55-10.73-8.06-15.19"/><path class="cls-31" d="M254.22,108.17c2.15-2.15,7.69-10.92,10.46-20.45s-2.31-27.08-7.69-32-11.08-27.29-11.08-27.29,1.39,14.83,7.62,25.14,5.92,20.31,5.77,29.08-11.53,17.84-11.53,17.84A36.11,36.11,0,0,1,254.22,108.17Z"/><path class="cls-31" d="M222.29,106.82c-19.64-17.35-9.13-37,1.37-49.32s14.62-29.08,14.62-29.08c-5.26,25-12.34,26.56-19.42,43s8,28.31,8,28.31A40.28,40.28,0,0,0,222.29,106.82Z"/><path class="cls-32" d="M264.79,214.51c-.38,9.24-3.36,15.3-10.51,18.43-3.91,1.72-9.06,2.55-15.7,2.55a33.22,33.22,0,0,1-10.4-1.63c-8.06-2.66-14.17-8.39-15.75-15.89.9,3.47,12.26,3.64,26.15,3.64C253.05,221.61,264.79,218.43,264.79,214.51Z"/><path class="cls-16" d="M224.52,231.22c0-.95-.78-11.72-1.73-11.72s-1.72,10.77-1.72,11.72a1.73,1.73,0,0,0,3.45,0Z"/><path class="cls-16" d="M262.3,233.33c0-1-.77-11.72-1.72-11.72s-1.72,10.77-1.72,11.72a1.72,1.72,0,0,0,3.44,0Z"/></g></g></svg>