<svg xmlns="http://www.w3.org/2000/svg" viewBox="0 0 468.08 320"><defs><style>.cls-1{fill:#926d46;}.cls-2{fill:#c6c6c5;}.cls-3{fill:#ababab;}.cls-4{fill:#f0efef;}.cls-5{fill:#dcdbdb;}.cls-6{fill:#cccccb;}.cls-7{fill:#c82027;}.cls-8{fill:#ddd;}.cls-9{fill:#a3a3a3;}.cls-10{fill:#fff;}</style></defs><title>Asset 4</title><g id="Layer_2" data-name="Layer 2"><g id="Layer_3" data-name="Layer 3"><rect class="cls-1" width="468.08" height="320"/></g><g id="Layer_1-2" data-name="Layer 1"><path class="cls-2" d="M294.88,190.17c0,6.65-6.72,8.71-15,8.71s-15.07-2.06-15.07-8.71a9.75,9.75,0,0,1,.93-4.14c2.12-4.57,7.62-7.85,14.14-7.85s12,3.28,14.11,7.85A9.75,9.75,0,0,1,294.88,190.17Z"/><path class="cls-3" d="M299.88,197.35a9.46,9.46,0,0,1-1.95,6c-2.19,2.82-6.13,4.37-10.93,5.07a49.25,49.25,0,0,1-7.16.46,58.66,58.66,0,0,1-6-.3c-5.33-.63-9.7-2.18-12.08-5.23a9.41,9.41,0,0,1-2-6A14.54,14.54,0,0,1,265.7,186a9.75,9.75,0,0,0-.93,4.14c0,6.65,6.73,8.71,15.07,8.71s15-2.06,15-8.71A9.75,9.75,0,0,0,294,186,14.55,14.55,0,0,1,299.88,197.35Z"/><path class="cls-4" d="M273.81,208.61l-11.29,61.84-18.71-9,17.92-58.09C264.11,206.43,268.48,208,273.81,208.61Z"/><path class="cls-5" d="M289.15,270.45H262.52l11.29-61.84a58.66,58.66,0,0,0,6,.3,49.25,49.25,0,0,0,7.16-.46Z"/><path class="cls-6" d="M305.08,262.3l-15.93,8.15-2.15-62c4.8-.7,8.74-2.25,10.93-5.07Z"/><ellipse class="cls-4" cx="274.01" cy="184.48" rx="2.93" ry="1.55"/><ellipse class="cls-4" cx="278.12" cy="190.68" rx="2.93" ry="1.55"/><ellipse class="cls-4" cx="286.22" cy="186.98" rx="2.93" ry="1.55"/><ellipse class="cls-4" cx="281.92" cy="182.19" rx="2.93" ry="1.55"/><path class="cls-7" d="M384.34,174.13c-3.69,2.24-18.83,12.7-34,8.59s-24-6.91-25.5-13.82S329,152.74,333,145.82c1.54-2.61,3.69-6.95,5.84-11.48,0,0,16.81-14.81,35.31,0,3.92,9.1,8.31,19,10.23,22.18C388.12,163,388,171.88,384.34,174.13Z"/><path class="cls-8" d="M374.11,134.34c-18.5-14.81-35.31,0-35.31,0,3.46-7.29,6.82-15.09,7.33-17.33a21.79,21.79,0,0,0,20.41-.51S370.18,125.28,374.11,134.34Z"/><path class="cls-9" d="M371.63,108.7c0,3.08-2,5.83-5.09,7.8a21.79,21.79,0,0,1-20.41.51c-3.69-1.91-6.07-5-6.07-8.31a8.91,8.91,0,0,1,4.63-8.08c.88,3.59,5.55,6.35,11.16,6.35,5.41,0,10-2.57,11.07-6C369.62,102.63,371.63,105.05,371.63,108.7Z"/><path class="cls-8" d="M367.2,99.36a4.94,4.94,0,0,1-.28,1.63c-1.08,3.41-5.66,6-11.07,6-5.61,0-10.28-2.76-11.16-6.35a5.41,5.41,0,0,1-.14-1.26c0-6.21,6.72-7.62,11.3-7.62C359.26,91.74,367.2,93.29,367.2,99.36Z"/><path class="cls-10" d="M101.26,140.88s-60.57,8.75-29.19,14.23,79.19,6.2,97.07-5.48c0,0-74.48,8.26-85.39,2.56S101.26,140.88,101.26,140.88Z"/><path class="cls-10" d="M92.23,164.57s-25.29,10.3,1.09,14.83,51.83.93,69.94-3.75a21.69,21.69,0,0,1-8.74-6.4s-39.5,9.52-56.83,4.68S92.23,164.57,92.23,164.57Z"/><path class="cls-10" d="M98.16,187.83s-20.45,6.24-4.37,12.8,50.11,6.4,65.1-2.34a43.44,43.44,0,0,1-10.77-6.09s-27.15,9.6-42.31,4.33S98.16,187.83,98.16,187.83Z"/><path class="cls-10" d="M176.37,140.88s20.61-8.94,26.23,6.2-10.93,27-31.07,32.32c0,0,25.48-16.5,22.8-28.73S176.37,140.88,176.37,140.88Z"/><path class="cls-10" d="M192,205.94s6.24,13.89-51.21,13.42-111.94-1.25-60.11-15c0,0-20.92-4.84-28.72,4.83s-3.12,14.37,28.57,15S207.44,223.11,192,205.94Z"/><path class="cls-10" d="M77.55,230c106.94,9.21,126.16-13,126.16-13s-8.13,15.3-64.18,18.58S77.55,230,77.55,230Z"/><path class="cls-10" d="M125.3,139.27c-30.31-32.94-41-37.15-2.63-68.84s24.82-46.84,24.82-46.84,16.71,21.7-13.27,47.31S113,106.33,116.1,114.14,125.3,139.27,125.3,139.27Z"/><path class="cls-10" d="M172.49,66.42s-44.6,13.92-44.91,30.51,21.91,36.77,6,49c0,0,26.91-15,12.52-30.52s-.94-26.28,8.13-32.54S172.49,66.42,172.49,66.42Z"/></g></g></svg>