<svg xmlns="http://www.w3.org/2000/svg" viewBox="0 0 468.08 320"><defs><style>.cls-1{fill:#926d46;}.cls-2{fill:#d6d6d6;}.cls-3{fill:#c6a860;}.cls-4{fill:#a3a3a3;}.cls-5{fill:#c9b177;}.cls-6{fill:#e8d295;}.cls-7{fill:#b0b0b0;}.cls-8{fill:#1a1813;}.cls-9{fill:none;stroke:#141213;stroke-miterlimit:10;}.cls-10{fill:#c6c6c5;}.cls-11{fill:#ababab;}.cls-12{fill:#f0efef;}.cls-13{fill:#dcdbdb;}.cls-14{fill:#cccccb;}</style></defs><title>Asset 5</title><g id="Layer_2" data-name="Layer 2"><g id="Layer_3" data-name="Layer 3"><rect class="cls-1" width="468.08" height="320"/></g><g id="Layer_1-2" data-name="Layer 1"><path class="cls-2" d="M147.24,210.71c-49,4.49-76-6.13-78.36-32s42.27-60.56,78.14-64c2.27-.22,4.43-.37,6.6-.49l-56.06,26-3,11.23c-9.39,9.41-14.32,20-13.62,27.82,1.52,16.49,30.15,22.49,67.85,19.06s56.94-29.41,55.42-45.91c-.57-5.93-4-10.94-10-14.73L195.44,118c19.91,5.77,31.57,17.56,33,33.25C230.84,177.1,196.2,206.23,147.24,210.71Z"/><polygon class="cls-3" points="123.35 145.48 115.88 185.97 87.85 176.91 94.57 151.47 97.56 140.24 106.39 142.03 123.35 145.48"/><path class="cls-4" d="M148.8,198.35c-37.7,3.43-66.33-2.57-67.85-19.06-.7-7.78,4.23-18.41,13.62-27.82l-6.72,25.44,28,9.06,78-42.78.34-5.48c6,3.79,9.43,8.8,10,14.73C205.74,168.94,186.48,194.88,148.8,198.35Z"/><polygon class="cls-5" points="193.88 143.19 115.88 185.97 123.35 145.48 153.93 129.56 181.66 115.09 196.09 107.56 195.44 117.99 194.22 137.71 193.88 143.19"/><polygon class="cls-6" points="196.09 107.56 181.66 115.09 153.93 129.56 123.35 145.48 106.39 142.03 97.56 140.24 153.62 114.27 176.08 103.87 196.09 107.56"/><path class="cls-2" d="M362.4,68.2c0,.6-3.15,1.23-7.07,1.38s-7.12-.27-7.14-.86,3.14-1.24,7.06-1.38S362.38,67.6,362.4,68.2Z"/><path class="cls-7" d="M362.4,68.2l.42,11.63c0,.27-.58.51-1.58.76a37.29,37.29,0,0,1-11,.4c-1-.18-1.59-.41-1.6-.65l-.42-11.62c0,.59,3.22,1,7.14.86S362.42,68.8,362.4,68.2Z"/><path class="cls-8" d="M373.84,154.28c.13,3.51-6.68,6.62-15.21,6.93S343.1,158.9,343,155.39c0,0,1.07-20.89,0-27.69s-2.5-20.14-1.28-25.66,9.06-10.22,8.56-21.05a37.29,37.29,0,0,0,11-.4c.62,10.34,6.3,13.08,9,17.31s1.11,20.21,2.44,25.26S373.84,154.28,373.84,154.28Z"/><line class="cls-9" x1="361.24" y1="80.59" x2="361.24" y2="80.57"/><line class="cls-9" x1="350.21" y1="80.99" x2="350.21" y2="80.96"/><path class="cls-10" d="M305.29,177.56c0,6.66-6.73,8.71-15,8.71s-15.07-2.05-15.07-8.71a9.82,9.82,0,0,1,.93-4.14c2.12-4.57,7.62-7.85,14.14-7.85s12,3.28,14.11,7.85A9.82,9.82,0,0,1,305.29,177.56Z"/><path class="cls-11" d="M310.29,184.75a9.41,9.41,0,0,1-2,6c-2.18,2.81-6.12,4.37-10.93,5.07a49,49,0,0,1-7.15.46,58.37,58.37,0,0,1-6-.3c-5.33-.63-9.7-2.18-12.09-5.23a9.46,9.46,0,0,1-1.95-6,14.56,14.56,0,0,1,5.93-11.33,9.82,9.82,0,0,0-.93,4.14c0,6.66,6.72,8.71,15.07,8.71s15-2.05,15-8.71a9.82,9.82,0,0,0-.93-4.14A14.62,14.62,0,0,1,310.29,184.75Z"/><path class="cls-12" d="M284.22,196l-11.29,61.84-18.71-9,17.91-58.09C274.52,193.83,278.89,195.38,284.22,196Z"/><path class="cls-13" d="M299.56,257.85H272.93L284.22,196a58.37,58.37,0,0,0,6,.3,49,49,0,0,0,7.15-.46Z"/><path class="cls-14" d="M315.49,249.7l-15.93,8.15-2.16-62c4.81-.7,8.75-2.26,10.93-5.07Z"/><ellipse class="cls-12" cx="284.41" cy="171.87" rx="2.93" ry="1.55"/><ellipse class="cls-12" cx="288.53" cy="178.07" rx="2.93" ry="1.55"/><ellipse class="cls-12" cx="296.63" cy="174.38" rx="2.93" ry="1.55"/><ellipse class="cls-12" cx="292.33" cy="169.59" rx="2.93" ry="1.55"/></g></g></svg>