<svg xmlns="http://www.w3.org/2000/svg" viewBox="0 0 468.08 320"><defs><style>.cls-1{fill:#926d46;}.cls-2{fill:#e8ce5d;}.cls-3{fill:#af9939;}.cls-4,.cls-8{fill:none;stroke-miterlimit:10;}.cls-4{stroke:#af9939;}.cls-5{fill:#bcbcbc;}.cls-6{fill:#a3a3a3;}.cls-7{fill:#d6d6d6;}.cls-8{stroke:#787878;}.cls-9{fill:#5f5c59;}.cls-10{fill:#4f4a3e;}.cls-11{fill:#bdb297;}</style></defs><title>Asset 2</title><g id="Layer_2" data-name="Layer 2"><g id="Layer_3" data-name="Layer 3"><rect class="cls-1" width="468.08" height="320"/></g><g id="Layer_1-2" data-name="Layer 1"><path class="cls-2" d="M348.45,64.8a5.33,5.33,0,0,0-1.19,2c-.71,2.06-.69,3.58-14.05,6.76-17.3,4.13-16.27,4.13-31.25,2.59s-33.06-.53-38.47-6.46S250.91,64,245.41,60.14a50.92,50.92,0,0,1-7.24-5.91l-.25-.29a19.34,19.34,0,0,1-2.78-4.29,16.24,16.24,0,0,1-.84-12.24c5.15-5.43,18.85-7.49,24.79-9.32s40.55.55,52.42,0,21.2,6.72,29.2,7.24,7.74,10,7.74,10a91.77,91.77,0,0,1,1.24,9.42C350,58.93,349.89,63.26,348.45,64.8Z"/><path class="cls-3" d="M342.77,79.78c-2.84,0-8.78,3.87-22.21,9.28S295,92.43,286.22,86.22A157,157,0,0,0,258.84,71c-10.2-4.58-13.87-8.66-20.67-16.75a50.92,50.92,0,0,0,7.24,5.91c5.5,3.88,12.65,3.62,18.08,9.56S287,74.6,302,76.16s14,1.54,31.25-2.59c13.36-3.18,13.34-4.7,14.05-6.76C351.82,72.79,345.61,79.78,342.77,79.78Z"/><path class="cls-2" d="M374.55,151.84c-.78,16.78-2.06,25.3-10.08,31.76s-31.26,8.52-48.56,9.56-41.84-.78-48.05-7-10.05-17.57-12.39-29.7-6.72-35.9-10.34-56.82-9.14-37.78-10-50a19.34,19.34,0,0,0,2.78,4.29l.25.29C245,62.32,248.64,66.4,258.84,71a157,157,0,0,1,27.38,15.24c8.77,6.21,20.92,8.27,34.34,2.84s19.37-9.28,22.21-9.28,9.05-7,4.49-13a5.33,5.33,0,0,1,1.19-2c1.44-1.54,1.56-5.87,1.24-10.06,0,0,10.65,34.07,14.78,48S375.33,135.05,374.55,151.84Z"/><path class="cls-3" d="M271.44,153.38c-.35-2.95-2.24-8.71-4.23-14.81-4-12.27-6.34-19.91-4.83-22.53,2.56-4.42,15.8-.08,19.8,1.36l-.78,2.16c-7.36-2.65-16-4.22-17-2.37s2.58,13.2,5,20.67c2,6.21,3.95,12.07,4.34,15.24Z"/><path class="cls-3" d="M261.74,140.66l-2.11-.91c.16-.37,4.06-9,21.07-6.64l-.31,2.27C265.08,133.29,261.77,140.58,261.74,140.66Z"/><path class="cls-3" d="M295,149.44c-1.86-6-6.66-35.73-6.86-37l2.26-.36c.05.3,5,30.81,6.79,36.67Z"/><path class="cls-3" d="M302.23,145.42a4.46,4.46,0,0,1-1.33-.19c-3.83-1.2-2.7-12.56-2-17.39l2.27.31c-1.09,8-.65,14.54.45,14.89a4,4,0,0,0,2.79-.54,11.56,11.56,0,0,0,5.08-5.8c1-3.28,1.4-10.76,1.4-10.84l2.28-.07c0,.1,1.24,10.17,5,13.56l-1.53,1.71c-1.94-1.76-3.28-4.79-4.17-7.67a29,29,0,0,1-.79,4,13.77,13.77,0,0,1-6.21,7.16A6.87,6.87,0,0,1,302.23,145.42Z"/><path class="cls-3" d="M325.18,138.69c-.14-.43-3.34-10.65.71-15.67,1.69-2.08,4.29-3,7.74-2.62l-.23,2.28c-2.67-.27-4.54.32-5.72,1.78-2.73,3.38-1.15,10.91-.32,13.53Z"/><line class="cls-4" x1="190.48" y1="152.59" x2="190.48" y2="152.57"/><path class="cls-5" d="M251.08,260.65c-6.33-1-19.9-4.65-37.22-9.72-11.38-3.35-24.41-7.35-38.07-11.62-11.27-3.5-22.95-7.23-34.52-11-12-3.89-23.83-7.77-34.93-11.45-12-4-23.09-7.78-32.5-11.06v0C57,200,45.63,195.69,44.24,194.55c-6.11-5-4.68-7.5.76-17.75,2-3.84,2.4-6.24,2.4-7.86,0,2.63,1,2.86,3.26,4.94s56.89,13.84,88.07,26.06,105.16,34.43,110.62,33.31C249.35,233.25,247.94,259.3,251.08,260.65Z"/><path class="cls-6" d="M254.81,260.79c-.4.27-1.68.2-3.71-.12l0,0c-3.14-1.35-1.73-27.4-1.73-27.4,5.37-1.12,23.25-31,23.79-32,4.76,4.13,6.13,12.91,6.94,19C281,227.09,261,256.9,254.81,260.79Z"/><path class="cls-7" d="M273.14,201.29c-.54.94-18.42,30.84-23.79,32s-79.44-21.09-110.62-33.31S52.91,176,50.66,173.88s-3.23-2.31-3.26-4.94v-.09c0-2.63-1-3.16,3-4.67,6.4-2.4,22.66-22.62,25.72-21.52s.16-2.85,9.59,0c0,0,179.13,54,185.51,57.28A9.07,9.07,0,0,1,273.14,201.29Z"/><path class="cls-6" d="M254.81,260.79s-6.6,14.1-8.65,15.92-16.15,1.6-21.85,0-10.45-25.78-10.45-25.78c17.32,5.07,30.89,8.71,37.22,9.72l0,0C253.13,261,254.41,261.06,254.81,260.79Z"/><path class="cls-6" d="M213.86,250.93s-1.84,9.16-4.58,11.9-14.55,2.27-20.24,0c-5.52-2.2-12.78-22.21-13.23-23.45a.17.17,0,0,1,0-.07C189.45,243.58,202.48,247.58,213.86,250.93Z"/><path class="cls-6" d="M172.35,251.89c-5.32,3-15.85-1.12-20.1-2.27s-11-21.29-11-21.29c11.57,3.75,23.25,7.48,34.52,11a.17.17,0,0,0,0,.07C176,240.28,177.39,249.11,172.35,251.89Z"/><path class="cls-6" d="M138.28,239.83c-3.86,3.19-13.66-.22-19.81-.9-6-.67-11.86-21.13-12.13-22.05,11.1,3.68,22.93,7.56,34.93,11.45C141.27,228.33,142.14,236.66,138.28,239.83Z"/><path class="cls-6" d="M106.34,216.88c-.16.56-3,10.73-6.76,13S85,227.09,83.34,226s-9.25-19.56-9.5-20.13C83.25,209.1,94.35,212.88,106.34,216.88Z"/><path class="cls-6" d="M73.84,205.8v0c0,.61-.54,10.4-4.29,12s-13.43,2-17.54-4.31-7.77-18.91-7.77-18.91C45.63,195.69,57,200,73.84,205.8Z"/><path class="cls-8" d="M106.34,216.88v0"/><path class="cls-8" d="M273.16,201.26l0,0"/><path class="cls-6" d="M112.88,180.42c-5.06-1.54-7.53-3.55-7.57-6.13-.1-6.35,16.31-12.07,18.18-12.7,2.38-.81,4.56.33,5.85,3,2,4.15,1.61,11.18-1.58,13.18-4.41,2.76-15.51-4.95-17.7-6.52l.87-1.21c-2.05,1.46-3.39,2.92-3.38,4.17,0,1.42,2.15,2.85,6,4Zm-1.28-10.79c4.93,3.5,12.69,7.7,15,6.27,2-1.21,2.35-6.9.74-10.3-1.2-2.53-2.63-2-3.1-1.88A59,59,0,0,0,111.6,169.63Z"/><path class="cls-6" d="M142.92,190.59a8.58,8.58,0,0,1-4.51-1.41c-2.4-1.5-4.53-4.28-3.86-7.1l2.18.51c-.35,1.49.83,3.41,2.87,4.69,1.53,1,3.85,1.64,5.36.42,2.7-2.2,7.82-10.12,7.39-14.12a1.9,1.9,0,0,0-1-1.68c-3-1.53-6.61-1.11-8.19.16a2,2,0,0,0-.78,2.27c1,3.81,2.35,4.41,5.66,4.19l.16,2.24c-4.7.32-6.79-1.22-8-5.86a4.31,4.31,0,0,1,1.56-4.59c2.5-2,7.07-2.2,10.6-.41a4.1,4.1,0,0,1,2.24,3.44c.54,5-5.08,13.56-8.21,16.1A5.36,5.36,0,0,1,142.92,190.59Z"/><path class="cls-9" d="M414.81,197c0,8.59-17.19,15.55-38.38,15.55s-38.38-7-38.38-15.55,17.19-15.51,38.38-15.51S414.81,188.4,414.81,197Z"/><path class="cls-10" d="M414.81,197v7.28l0,.87c-1.13,8.2-17.88,14.68-38.34,14.68-21.19,0-38.38-7-38.38-15.55V197c0,8.59,17.19,15.55,38.38,15.55S414.81,205.55,414.81,197Z"/><path class="cls-10" d="M411.17,269.78v7.29c0,8.59-17.19,15.55-38.38,15.55s-38.38-7-38.38-15.55v-7.29c0,8.6,17.19,15.55,38.38,15.55S411.17,278.38,411.17,269.78Z"/><path class="cls-11" d="M414.77,205.11l-3.6,64.67c0,8.6-17.19,15.55-38.38,15.55s-38.38-6.95-38.38-15.55l3.64-65.54c0,8.59,17.19,15.55,38.38,15.55C396.89,219.79,413.64,213.31,414.77,205.11Z"/><path class="cls-10" d="M344.72,264.94c-.34-4.84-1.85-29.24.91-34.34,1.63-3,5.71-3.94,9.49-2.17a8.39,8.39,0,0,1,4.26,11.25l-.38,1c-2.36,5.9-2.6,6.52-5.16,7.43a16.37,16.37,0,0,0-1.65.66l-1.54-3.3a17.35,17.35,0,0,1,2-.79c1-.36,1-.36,3-5.35l.38-1c1.71-4.26-1.43-6.13-2.43-6.6-1.73-.81-4-.8-4.74.61-1.75,3.22-1.22,21.55-.48,32.35Z"/><path class="cls-10" d="M369.42,258.6a18.07,18.07,0,0,1-6.69-1.44,4.87,4.87,0,0,1-3.27-3.74c-.79-4.72,5.87-10.84,7.22-12l2.4,2.74c-2.63,2.31-6.36,6.67-6,8.68,0,.17.1.58,1.05,1,3.64,1.47,6.92,1.58,8.59.28,1.12-.87,1.52-2.45,1.2-4.69a38.69,38.69,0,0,1-.43-5.82c0-.25,0-.53,0-.75-.31-.07-.74-.16-1-.2l.66-3.58c3.26.6,4,1.4,4,4.51a34.28,34.28,0,0,0,.38,5.32c.65,4.52-1,6.89-2.56,8.08A8.79,8.79,0,0,1,369.42,258.6Z"/><path class="cls-10" d="M396.56,258a8.46,8.46,0,0,1-5.81-2l-.34-.32a4.91,4.91,0,0,1-1.38,1.46c-1,.69-2.69,1.28-5.23.27a6,6,0,0,1-3.36-3.33c-1.81-4.36.8-10.78,1.11-11.49L384.9,244c-.66,1.56-2.14,6.16-1.1,8.67a2.35,2.35,0,0,0,1.36,1.35c.57.22,1.35.44,1.8.12.8-.55,1.15-2.54,1.14-3.71l3.64-.11a4.76,4.76,0,0,0,1.45,3,5.39,5.39,0,0,0,4.13,1,2.49,2.49,0,0,0,2.28-1.76c1.45-3.6-.46-10.7-1.69-12.09l2.72-2.42c2,2.29,4.35,10.9,2.34,15.87a6.11,6.11,0,0,1-5.38,4C397.24,258,396.9,258,396.56,258Z"/></g></g></svg>