<svg xmlns="http://www.w3.org/2000/svg" viewBox="0 0 468.08 320"><defs><style>.cls-1{fill:#93a9b2;}.cls-2{fill:#976882;}.cls-3{fill:#634155;}.cls-4{fill:#28c3e9;}.cls-5{fill:#926d46;}.cls-6{fill:#4a3521;}.cls-7{fill:#1e170f;}.cls-8{fill:#17130f;}.cls-11,.cls-9{fill:none;}.cls-9{stroke:#ed2390;stroke-miterlimit:10;}.cls-10{fill:#3c9444;}.cls-12{fill:#aeadae;}.cls-13{fill:#999;}.cls-14{fill:#ffebc0;}.cls-15{fill:#e0c99c;}.cls-16{fill:#fbf178;}.cls-17{fill:#35312a;}</style></defs><title>Asset 6</title><g id="Layer_2" data-name="Layer 2"><g id="Layer_3" data-name="Layer 3"><rect class="cls-1" width="468.08" height="320"/></g><g id="Layer_1-2" data-name="Layer 1"><path class="cls-2" d="M195.28,106.47a24.81,24.81,0,0,1-.67,4.13c-.41,1.66-.86,3.42-1.37,5.21-2,7.13-4.86,14.89-9.72,19.95a17,17,0,0,1-15.37,5.3,35,35,0,0,1-12.29-3.88,26.42,26.42,0,0,1-13.32-18.28,38.62,38.62,0,0,1-.85-8.3c0-.53,0-1.07.06-1.61.87-12.27,11.47-25.66,24.79-25.88.53,0,1.07,0,1.61,0l1.3.1C185.89,84.69,196.22,93.72,195.28,106.47Z"/><path class="cls-3" d="M142.54,118.9a5.41,5.41,0,0,1-2.93.86c-3,0-5.14-.74-4.41-5.41.26-1.66,2.07-4.62,4.41-5.41a3,3,0,0,1,2.14,0c0,.54-.06,1.08-.06,1.61A38.62,38.62,0,0,0,142.54,118.9Z"/><path class="cls-3" d="M201.18,111.7c0,3-1.42,5.41-4.41,5.41a5.42,5.42,0,0,1-3.53-1.3c.51-1.79,1-3.55,1.37-5.21a24.81,24.81,0,0,0,.67-4.13,6.08,6.08,0,0,1,1.49-.18C199.76,106.29,201.18,109.61,201.18,111.7Z"/><path class="cls-4" d="M196.27,167.27a58.68,58.68,0,0,1-1.57,13.66,17.09,17.09,0,0,1-3,6.42,32.69,32.69,0,0,1-2.68,2.93,17.07,17.07,0,0,1-11,5.07,32,32,0,0,1-5.75-.15h-.06c-4-.49-8.07-1.88-10.95-4.91l-.14-.15a11.28,11.28,0,0,1-.87-1A54.37,54.37,0,0,1,150,159a59.14,59.14,0,0,1,.13-6.63c.05-.65.11-1.28.19-1.89,1.21-9.71,5.57-13.32,5.57-13.32a35,35,0,0,0,12.29,3.88,17,17,0,0,0,15.37-5.3,58.33,58.33,0,0,1,8.23,12.66,48.09,48.09,0,0,1,3.45,9.52h0A36.55,36.55,0,0,1,196.27,167.27Z"/><path class="cls-5" d="M392.84,265.38s-6.59.58-22.77-1.65c-7.64-1.05-21.72-1-41.14.15-19.24,1.17-31.45,2.05-43.88,2.05-10.84,0-62.81.65-62.81.65-9.43-.45-58.41-2.1-87,.45A470.14,470.14,0,0,1,80,268.38l-.6-4.5s13.78-18,20.07-23.51,32.8-39.09,32.8-39.09,2,1.2,8.24,1.34l20.3.47,11.49.26h0l9.59.22c1.22-.06,6.74,0,14.38,0l11.13.06c20.6.1,47.14.18,54.08-.48,11.36-1.08,37.55,0,37.55,0s39.74.08,40.64.53,8.83,9.89,12.58,17.53,17.67,23.21,22.77,27.56S392.84,265.38,392.84,265.38Z"/><path class="cls-6" d="M392.84,265.38v13.33s-.9-3-6.14-3-23.52.29-26.06.44-36.55,3.9-42.39,3.9-52.72,4.49-60.66,4.19-39.39,1.08-48.08,0-43.74-2.24-51.52-2c-4.19.15-27.86-.45-34.75-.45s-23.36,1-30.4-.3-10.94-1.95-10.94-1.95L80,268.38A470.14,470.14,0,0,0,135.22,267c28.61-2.55,77.59-.9,87-.45,0,0,52-.65,62.81-.65,12.43,0,24.64-.88,43.88-2.05,19.42-1.17,33.5-1.2,41.14-.15C386.25,266,392.84,265.38,392.84,265.38Z"/><path class="cls-7" d="M172.3,203.35h0l-11.49-.26c0-2.2.26-10.12.34-13l.14.15c2.88,3,6.94,4.42,10.95,4.91Z"/><path class="cls-8" d="M207.4,203.62l-11.13-.06c-.88-3.4-7.23-13.28-7.23-13.28a32.69,32.69,0,0,0,2.68-2.93,17.09,17.09,0,0,0,3-6.42c.75,1.07,2.94,4.14,3.71,5.38C200.16,189.13,207,201.25,207.4,203.62Z"/><path class="cls-9" d="M194.7,180.93l-.27-.37"/><path class="cls-7" d="M165,60.15a10.16,10.16,0,0,1-3.68,1.3,4.91,4.91,0,0,1-2.4-.12,1,1,0,0,1-.62-.58c-.16-.51.27-1.15,1.09-1.74a8.75,8.75,0,0,1,2.49-1.2,9.23,9.23,0,0,1,2.1-.43,7.16,7.16,0,0,1,1,0c.79.08,1.34.34,1.48.78S166.06,59.49,165,60.15Z"/><path class="cls-10" d="M166.28,74.73a5.7,5.7,0,0,1-3.37-.39l-1.6-12.89a9.17,9.17,0,0,0,1.6-.37C165,64.88,165.89,70.24,166.28,74.73Z"/><path class="cls-10" d="M170.83,71.16a6.44,6.44,0,0,1-2.13,2.65c-.52-4.14-1.38-8.77-2.82-12Z"/><path class="cls-7" d="M169.45,83.24l-1.3-.1c-.54,0-1.08,0-1.61,0a70.23,70.23,0,0,0-.26-8.38c-.39-4.49-1.31-9.85-3.37-13.65a9.11,9.11,0,0,0,2.08-.93l.89,1.68c1.44,3.21,2.3,7.84,2.82,12C169.34,78.9,169.45,83.24,169.45,83.24Z"/><path class="cls-11" d="M165.88,61.83a12,12,0,0,0-.89-1.68"/><path class="cls-9" d="M166.54,83.24v-.13"/><path class="cls-10" d="M168.52,38,164,57.38a9.23,9.23,0,0,0-2.1.43,8.75,8.75,0,0,0-2.49,1.2L147.5,44.56C153.22,34.82,168.52,38,168.52,38Z"/><line class="cls-11" x1="163.97" y1="57.39" x2="163.97" y2="57.38"/><path class="cls-10" d="M183.52,50.86l-17,7.29c-.14-.44-.69-.7-1.48-.78l17.86-12.1A6.15,6.15,0,0,1,183.52,50.86Z"/><line class="cls-11" x1="165" y1="57.37" x2="164.99" y2="57.38"/><path class="cls-10" d="M158.91,61.33l-12.85,13c-2.29-.58-2.43-4.44-2.43-4.44l14.66-9.15A1,1,0,0,0,158.91,61.33Z"/><line class="cls-11" x1="158.92" y1="61.32" x2="158.91" y2="61.33"/><path class="cls-7" d="M150.1,152.39A59.14,59.14,0,0,0,150,159c-1.64,0-11.28-.43-19.77-.85a90.32,90.32,0,0,1-26.64-5.53c-7.93-3.11-7.22-6.23-5.38-14.73s-2.69-6.81-10.91-8.08S82,119.34,84.15,116.37s6.8-7.09,2.55-10.08-6.38-4.94-8.5-9.9,5.38-29.47,5.67-31.46,6.8,0,6.8,0S89.11,74.85,88,85.62s3.54,9.07,10.2,9.07-1.42,12-3.26,17-6.38,7.5,5.52,8.06,10.92,2.56,11.48,5.11-1,15.73,3,21.68,20.69,3,23.9,3,11.49,1,11.49,1C150.21,151.11,150.15,151.74,150.1,152.39Z"/><line class="cls-9" x1="149.98" y1="159.02" x2="149.97" y2="159.02"/><path class="cls-2" d="M90.67,64.93s5.18,1.13,5.67-1.88S95,53.11,92,57c0,0,.53-4.1-1.33-4.16s-2.76,1.39-2.52,4.28c0,0-.66-3.25-2.35-3.13s-2.53,2-1.86,4.27c0,0-1.69-3.91-3.8-2.95s-3.14,2.95-2.32,5.6.7,3.88,2.32,4.26a9,9,0,0,0,3.73-.21"/><path class="cls-7" d="M258.79,62.18c.42,2.09,1.25,6.49-2.65,9.52s-10.3,5.94-11.28,7.2-2.5,2.64,2.37,5.57,4.74,11.69.42,14.2-14.76,7.24-15.88,10.1,4.46,11.21.7,16.92-15.18,15.87-19.91,18.24-14.92,9.92-17.36,14a48.09,48.09,0,0,0-3.45-9.52,23.38,23.38,0,0,1,8.13-7.16c5.15-2.62,18.38-10.28,21.87-17.38s1.11-10.31,0-14.07-3.21-7.1,2.92-11,12.81-8.63,8.91-11.42-8.91-4.32-2.78-9.33S249.6,68.58,251.27,67s.84-4,.84-5.53.2-3.3.2-3.3,5.92-4.6,9.13-2.23C261.44,55.92,258.37,60.1,258.79,62.18Z"/><circle class="cls-7" cx="162.91" cy="115.84" r="1.06"/><circle class="cls-7" cx="176.38" cy="114.78" r="1.06"/><path class="cls-7" d="M162.91,123.15l12.41-.93s3.85,4.78,0,8.24-12.85.8-14-1.6A4.29,4.29,0,0,1,162.91,123.15Z"/><path class="cls-2" d="M263.18,47.4c-3.19-3.5-5-1.71-5.05-.47,0,0-2.57-4.12-4.28-2.64-1.5,1.3-.61,3.43-.37,3.93-.35-.6-2.17-3.51-3.29-1.83a3.87,3.87,0,0,0-.77,2.36c-.33-1.12-1.21-3.11-3.12-1.66-2.57,1.94-3.19,3.27-1.87,5.52s2.73,4.77,3.89,5.54a3.88,3.88,0,0,0,4,0s5.92-4.6,9.13-2.23C261.44,55.92,266.37,50.9,263.18,47.4Zm-13.76,1.36a6.26,6.26,0,0,1,.14.63A1.69,1.69,0,0,1,249.42,48.76Z"/><path class="cls-12" d="M292.6,230.69c-7.51-14.79-25.4-20.26-56.72-20.26S187.7,214,179.16,230.69c-6.44,12.6,25.39,20.26,56.72,20.26S300.91,247.06,292.6,230.69Z"/><path class="cls-13" d="M284.21,230.69c-6.4-11.25-21.62-15.42-48.3-15.42s-41,2.72-48.29,15.42c-5.49,9.59,21.62,15.42,48.29,15.42S291.29,243.15,284.21,230.69Z"/><path class="cls-14" d="M268.4,187.68c.16,4.08-14.39,7.94-32.5,8.62s-32.91-2.06-33.06-6.14,14.39-7.94,32.5-8.62S268.25,183.61,268.4,187.68Z"/><path class="cls-15" d="M274.7,225.82c0,5-16.2,9-36.2,9s-36.21-4-36.21-9l1.8-18.07c.15,4.08,15,6.83,33.06,6.15s32.66-4.54,32.51-8.62Z"/><path class="cls-16" d="M269.66,201.77v3.51c.15,4.08-14.4,7.93-32.51,8.62s-32.91-2.07-33.06-6.15v-3.57c.15,4.08,15,6.83,33.06,6.15S269.66,205.82,269.66,201.77Z"/><path class="cls-15" d="M269.66,201.71v.06c0,4-14.49,7.87-32.51,8.56s-32.91-2.07-33.06-6.15l-1.25-14c.15,4.08,14.95,6.83,33.06,6.14s32.66-4.54,32.5-8.62Z"/><path class="cls-17" d="M230.19,186.85l12.49-.45s4.67,6.24-4.24,6.71C228,193.67,230.19,186.85,230.19,186.85Z"/><ellipse class="cls-17" cx="232.18" cy="184.65" rx="2.08" ry="0.83"/><ellipse class="cls-17" cx="239.79" cy="183.82" rx="2.08" ry="0.83"/></g></g></svg>