<svg xmlns="http://www.w3.org/2000/svg" viewBox="0 0 468.08 320"><defs><style>.cls-1{fill:#926d46;}.cls-2{fill:#e8ce5d;}.cls-3{fill:#af9939;}.cls-4{fill:#4c4c4b;}.cls-5{fill:#2d2c2a;}.cls-6{fill:#141213;}</style></defs><title>Asset 3</title><g id="Layer_2" data-name="Layer 2"><g id="Layer_3" data-name="Layer 3"><rect class="cls-1" width="468.08" height="320"/></g><g id="Layer_1-2" data-name="Layer 1"><path class="cls-2" d="M361,65.55a5.33,5.33,0,0,0-1.19,2c-.71,2.06-.69,3.58-14.05,6.76-17.3,4.13-16.27,4.13-31.25,2.59s-33.07-.53-38.47-6.46-12.58-5.68-18.08-9.56A50.27,50.27,0,0,1,250.7,55l-.26-.3a19,19,0,0,1-2.77-4.28,16.22,16.22,0,0,1-.85-12.24c5.16-5.43,18.86-7.49,24.8-9.32s40.55.55,52.42,0,21.2,6.71,29.19,7.24,7.75,10,7.75,10a89.71,89.71,0,0,1,1.23,9.42C362.54,59.68,362.42,64,361,65.55Z"/><path class="cls-3" d="M355.29,80.53c-2.84,0-8.77,3.87-22.2,9.28S307.52,93.18,298.75,87a156.72,156.72,0,0,0-27.39-15.24C261.17,67.15,257.5,63.07,250.7,55a50.27,50.27,0,0,0,7.24,5.91c5.5,3.88,12.64,3.62,18.08,9.56s23.48,4.9,38.47,6.46,13.95,1.54,31.25-2.59c13.36-3.18,13.34-4.7,14.05-6.76C364.35,73.54,358.14,80.53,355.29,80.53Z"/><path class="cls-2" d="M387.08,152.59c-.78,16.77-2.07,25.3-10.09,31.76s-31.25,8.52-48.55,9.55-41.84-.77-48.05-7-10.06-17.58-12.39-29.7-6.72-35.9-10.34-56.82-9.14-37.78-10-50a19,19,0,0,0,2.77,4.28l.26.3c6.8,8.09,10.47,12.17,20.66,16.75A156.72,156.72,0,0,1,298.75,87c8.77,6.21,20.91,8.27,34.34,2.84s19.36-9.28,22.2-9.28,9.06-7,4.5-13a5.33,5.33,0,0,1,1.19-2c1.44-1.54,1.56-5.87,1.23-10.06,0,0,10.66,34.07,14.78,48S387.85,135.8,387.08,152.59Z"/><path class="cls-3" d="M284,154.13c-.36-2.95-2.24-8.71-4.24-14.81-4-12.27-6.33-19.91-4.82-22.53,2.56-4.42,15.8-.08,19.79,1.36l-.77,2.16c-7.36-2.65-16-4.22-17-2.37s2.58,13.2,5,20.67c2,6.21,3.95,12.07,4.34,15.24Z"/><path class="cls-3" d="M274.26,141.4l-2.1-.9c.16-.37,4.06-9,21.07-6.64l-.31,2.27C277.61,134,274.3,141.33,274.26,141.4Z"/><path class="cls-3" d="M307.5,150.19c-1.87-6-6.66-35.73-6.87-37l2.27-.36c.05.3,5,30.81,6.79,36.67Z"/><path class="cls-3" d="M314.76,146.17a4.52,4.52,0,0,1-1.34-.19c-3.82-1.2-2.69-12.56-2-17.39l2.27.31c-1.09,8-.66,14.54.45,14.89a3.91,3.91,0,0,0,2.78-.54,11.54,11.54,0,0,0,5.09-5.8c1-3.28,1.4-10.76,1.4-10.84l2.28-.07c0,.1,1.24,10.17,5,13.56l-1.53,1.71c-1.95-1.76-3.28-4.79-4.18-7.68a28.82,28.82,0,0,1-.79,4,13.71,13.71,0,0,1-6.2,7.16A6.9,6.9,0,0,1,314.76,146.17Z"/><path class="cls-3" d="M337.71,139.44c-.14-.43-3.35-10.65.71-15.67,1.68-2.08,4.29-3,7.73-2.62l-.22,2.28c-2.67-.28-4.54.32-5.73,1.78-2.73,3.38-1.15,10.91-.31,13.53Z"/><path d="M131.08,135.44c-41.83,0-75.87-22.29-75.87-49.69C55.21,61.53,100.53,44,131.08,44,167,44,207,61.14,207,85.75,207,113.15,172.92,135.44,131.08,135.44Zm0-83.51c-29,0-67.94,16.72-67.94,33.82,0,23,30.48,41.76,67.94,41.76S199,108.77,199,85.75C199,68.68,165.37,51.93,131.08,51.93Z"/><path d="M90.39,127.42a4,4,0,0,1-3.57-5.71L99,96.71,59.21,83.18a4,4,0,0,1-2.63-4.43,3.75,3.75,0,0,1,4-3.29l48.4.82,14.61-29.95a4,4,0,0,1,6.77-.59L153.05,77l49.58.84a4,4,0,0,1,1.31,7.69L168.72,98.62l13.65,18.8a4,4,0,0,1-4.49,6.09L138.08,110,91.77,127.17A3.91,3.91,0,0,1,90.39,127.42Zm16.19-28.14-8.28,17,27.88-10.34Zm43.3,6.33L168.61,112,161,101.49ZM110.09,92.09,138,101.57l18.19-6.75L149,84.9l-35.08-.6Zm48.8-7,5,6.88,17.54-6.5ZM85.76,83.83l16.75,5.69,2.62-5.37Zm32-7.4,25.41.43L127.8,55.75Z"/><ellipse class="cls-4" cx="122.66" cy="222.15" rx="21.06" ry="8.42"/><path class="cls-5" d="M143.72,222.15v57c0,4.64-9.42,8.42-21.06,8.42s-21.06-3.78-21.06-8.42v-57c0,4.65,9.43,8.42,21.06,8.42S143.72,226.8,143.72,222.15Z"/><path class="cls-6" d="M120.76,221.54c-.69-11,5-14.44,9.85-15.38l.72,3.75c-3.17.61-7.32,2.45-6.77,11.4Z"/><ellipse class="cls-4" cx="174.55" cy="184.24" rx="21.06" ry="8.42"/><path class="cls-5" d="M195.61,184.24v57c0,4.64-9.42,8.42-21.06,8.42s-21.06-3.78-21.06-8.42v-57c0,4.65,9.43,8.42,21.06,8.42S195.61,188.89,195.61,184.24Z"/><path class="cls-6" d="M172.64,183.63c-.68-11,5-14.44,9.85-15.38l.72,3.75c-3.17.61-7.32,2.46-6.76,11.4Z"/><ellipse class="cls-4" cx="246.15" cy="193.3" rx="21.06" ry="8.42"/><path class="cls-5" d="M267.21,193.3v57c0,4.65-9.42,8.42-21.06,8.42s-21.06-3.77-21.06-8.42v-57c0,4.64,9.44,8.42,21.06,8.42S267.21,197.94,267.21,193.3Z"/><path class="cls-6" d="M244.25,192.69c-.69-11,5-14.44,9.85-15.38l.72,3.74c-3.17.61-7.32,2.46-6.76,11.4Z"/><ellipse class="cls-4" cx="183.21" cy="226.99" rx="21.06" ry="8.42"/><path class="cls-5" d="M204.27,227v57c0,4.64-9.42,8.42-21.06,8.42s-21.06-3.78-21.06-8.42V227c0,4.65,9.43,8.42,21.06,8.42S204.27,231.64,204.27,227Z"/><path class="cls-6" d="M181.31,226.39c-.69-11,5-14.45,9.85-15.39l.72,3.75c-3.17.61-7.32,2.46-6.77,11.4Z"/><ellipse class="cls-4" cx="249.5" cy="234.99" rx="21.06" ry="8.42"/><path class="cls-5" d="M270.56,235v57c0,4.65-9.41,8.42-21.06,8.42s-21.06-3.77-21.06-8.42V235c0,4.64,9.44,8.42,21.06,8.42S270.56,239.63,270.56,235Z"/><path class="cls-6" d="M247.6,234.38c-.69-11,5-14.44,9.85-15.38l.72,3.75c-3.17.6-7.32,2.45-6.76,11.39Z"/></g></g></svg>